<svg width="23" height="24" viewBox="0 0 23 24" fill="none" xmlns="http://www.w3.org/2000/svg">
<path d="M16.1039 17.9999C16.6038 17.9999 17.029 17.8251 17.3794 17.4755C17.7298 17.1259 17.9046 16.7007 17.9038 16.1999C17.903 15.6991 17.7282 15.2743 17.3794 14.9255C17.0306 14.5767 16.6054 14.4015 16.1039 14.3999C15.6023 14.3983 15.1775 14.5735 14.8295 14.9255C14.4815 15.2775 14.3063 15.7023 14.3039 16.1999C14.3015 16.6975 14.4767 17.1227 14.8295 17.4755C15.1823 17.8283 15.6071 18.0031 16.1039 17.9999ZM16.1039 21.5999C16.7238 21.5999 17.2938 21.4547 17.8138 21.1643C18.3338 20.8739 18.7538 20.4891 19.0738 20.0099C18.6338 19.7499 18.1638 19.5499 17.6638 19.4099C17.1638 19.2699 16.6438 19.1999 16.1039 19.1999C15.5639 19.1999 15.0439 19.2699 14.5439 19.4099C14.0439 19.5499 13.5739 19.7499 13.1339 20.0099C13.4539 20.4899 13.8739 20.8751 14.3939 21.1655C14.9139 21.4559 15.4839 21.6007 16.1039 21.5999ZM10.1039 23.9999C7.32388 23.2999 5.02869 21.7047 3.2183 19.2143C1.4079 16.7239 0.503107 13.9592 0.503907 10.92V3.59999L10.1039 0L19.7038 3.59999V10.41C19.3238 10.25 18.9338 10.1048 18.5338 9.97437C18.1338 9.84397 17.7238 9.74957 17.3038 9.69117V5.27998L10.1039 2.57999L2.9039 5.27998V10.92C2.9039 11.86 3.0291 12.8 3.2795 13.74C3.5299 14.6799 3.8799 15.5751 4.32949 16.4255C4.77909 17.2759 5.32389 18.0607 5.96389 18.7799C6.60389 19.4991 7.31388 20.0991 8.09388 20.5799C8.31388 21.2199 8.60388 21.8299 8.96388 22.4099C9.32388 22.9899 9.73387 23.5099 10.1939 23.9699C10.1739 23.9699 10.1591 23.9751 10.1495 23.9855C10.1399 23.9959 10.1247 24.0007 10.1039 23.9999ZM16.1039 23.9999C14.4439 23.9999 13.0291 23.4147 11.8595 22.2443C10.6899 21.0739 10.1047 19.6591 10.1039 17.9999C10.1031 16.3407 10.6883 14.9259 11.8595 13.7556C13.0307 12.5852 14.4455 12 16.1039 12C17.7622 12 19.1774 12.5852 20.3494 13.7556C21.5214 14.9259 22.1062 16.3407 22.1038 17.9999C22.1014 19.6591 21.5162 21.0743 20.3482 22.2455C19.1802 23.4167 17.7654 24.0015 16.1039 23.9999Z" fill="#1A9C00"/>
</svg>
