<svg width="13" height="12" viewBox="0 0 13 12" fill="none" xmlns="http://www.w3.org/2000/svg">
<path d="M0.733276 6C0.733276 9.14098 3.2798 11.6875 6.42078 11.6875C9.56175 11.6875 12.1083 9.14098 12.1083 6C12.1083 2.85902 9.56175 0.3125 6.42078 0.3125C3.2798 0.3125 0.733276 2.85902 0.733276 6ZM8.73652 5.03449C8.77674 4.99216 8.82503 4.9583 8.87854 4.93492C8.93205 4.91154 8.9897 4.89911 9.0481 4.89837C9.10649 4.89762 9.16444 4.90857 9.21853 4.93057C9.27262 4.95257 9.32176 4.98518 9.36306 5.02647C9.40435 5.06776 9.43696 5.1169 9.45896 5.171C9.48096 5.22509 9.49191 5.28304 9.49116 5.34143C9.49041 5.39982 9.47798 5.45747 9.4546 5.51098C9.43122 5.5645 9.39737 5.61279 9.35503 5.65301L6.73003 8.27801C6.648 8.35999 6.53676 8.40605 6.42078 8.40605C6.30479 8.40605 6.19356 8.35999 6.11152 8.27801L3.48652 5.65301C3.40793 5.57029 3.36477 5.46015 3.36623 5.34607C3.36769 5.23199 3.41366 5.12299 3.49434 5.04231C3.57501 4.96164 3.68401 4.91567 3.7981 4.91421C3.91218 4.91275 4.02232 4.95591 4.10503 5.03449L6.42078 7.34996L8.73652 5.03449Z" fill="#EEEEEE"/>
</svg>
