<svg width="24" height="24" viewBox="0 0 24 24" fill="none" xmlns="http://www.w3.org/2000/svg">
<path fill-rule="evenodd" clip-rule="evenodd" d="M4.8 2.3999H19.2C20.473 2.3999 21.6939 2.90561 22.5941 3.80579C23.4943 4.70596 24 5.92686 24 7.1999V19.1999C24 20.4729 23.4943 21.6938 22.5941 22.594C21.6939 23.4942 20.473 23.9999 19.2 23.9999H4.8C3.52696 23.9999 2.30606 23.4942 1.40589 22.594C0.505713 21.6938 0 20.4729 0 19.1999V7.1999C0 5.92686 0.505713 4.70596 1.40589 3.80579C2.30606 2.90561 3.52696 2.3999 4.8 2.3999ZM4.8 4.7999C4.16348 4.7999 3.55303 5.05276 3.10294 5.50285C2.65286 5.95293 2.4 6.56338 2.4 7.1999V19.1999C2.4 19.8364 2.65286 20.4469 3.10294 20.897C3.55303 21.347 4.16348 21.5999 4.8 21.5999H19.2C19.8365 21.5999 20.447 21.347 20.8971 20.897C21.3471 20.4469 21.6 19.8364 21.6 19.1999V7.1999C21.6 6.56338 21.3471 5.95293 20.8971 5.50285C20.447 5.05276 19.8365 4.7999 19.2 4.7999H4.8Z" fill="#FBFFBD"/>
<path fill-rule="evenodd" clip-rule="evenodd" d="M1.20007 9.6C1.20007 9.28174 1.3265 8.97652 1.55155 8.75147C1.77659 8.52643 2.08181 8.4 2.40007 8.4H21.6001C21.9183 8.4 22.2236 8.52643 22.4486 8.75147C22.6736 8.97652 22.8001 9.28174 22.8001 9.6C22.8001 9.91826 22.6736 10.2235 22.4486 10.4485C22.2236 10.6736 21.9183 10.8 21.6001 10.8H2.40007C2.08181 10.8 1.77659 10.6736 1.55155 10.4485C1.3265 10.2235 1.20007 9.91826 1.20007 9.6ZM7.20007 0C7.51833 0 7.82356 0.126428 8.0486 0.351472C8.27365 0.576515 8.40007 0.88174 8.40007 1.2V6C8.40007 6.31826 8.27365 6.62348 8.0486 6.84853C7.82356 7.07357 7.51833 7.2 7.20007 7.2C6.88181 7.2 6.57659 7.07357 6.35155 6.84853C6.1265 6.62348 6.00007 6.31826 6.00007 6V1.2C6.00007 0.88174 6.1265 0.576515 6.35155 0.351472C6.57659 0.126428 6.88181 0 7.20007 0ZM16.8001 0C17.1183 0 17.4236 0.126428 17.6486 0.351472C17.8736 0.576515 18.0001 0.88174 18.0001 1.2V6C18.0001 6.31826 17.8736 6.62348 17.6486 6.84853C17.4236 7.07357 17.1183 7.2 16.8001 7.2C16.4818 7.2 16.1766 7.07357 15.9515 6.84853C15.7265 6.62348 15.6001 6.31826 15.6001 6V1.2C15.6001 0.88174 15.7265 0.576515 15.9515 0.351472C16.1766 0.126428 16.4818 0 16.8001 0Z" fill="#FBFFBD"/>
<path d="M7.19993 13.2C7.19993 13.5183 7.0735 13.8235 6.84845 14.0485C6.62341 14.2736 6.31819 14.4 5.99993 14.4C5.68167 14.4 5.37644 14.2736 5.1514 14.0485C4.92636 13.8235 4.79993 13.5183 4.79993 13.2C4.79993 12.8817 4.92636 12.5765 5.1514 12.3515C5.37644 12.1264 5.68167 12 5.99993 12C6.31819 12 6.62341 12.1264 6.84845 12.3515C7.0735 12.5765 7.19993 12.8817 7.19993 13.2ZM7.19993 18C7.19993 18.3183 7.0735 18.6235 6.84845 18.8485C6.62341 19.0736 6.31819 19.2 5.99993 19.2C5.68167 19.2 5.37644 19.0736 5.1514 18.8485C4.92636 18.6235 4.79993 18.3183 4.79993 18C4.79993 17.6817 4.92636 17.3765 5.1514 17.1515C5.37644 16.9264 5.68167 16.8 5.99993 16.8C6.31819 16.8 6.62341 16.9264 6.84845 17.1515C7.0735 17.3765 7.19993 17.6817 7.19993 18ZM13.1999 13.2C13.1999 13.5183 13.0735 13.8235 12.8485 14.0485C12.6234 14.2736 12.3182 14.4 11.9999 14.4C11.6817 14.4 11.3764 14.2736 11.1514 14.0485C10.9264 13.8235 10.7999 13.5183 10.7999 13.2C10.7999 12.8817 10.9264 12.5765 11.1514 12.3515C11.3764 12.1264 11.6817 12 11.9999 12C12.3182 12 12.6234 12.1264 12.8485 12.3515C13.0735 12.5765 13.1999 12.8817 13.1999 13.2ZM13.1999 18C13.1999 18.3183 13.0735 18.6235 12.8485 18.8485C12.6234 19.0736 12.3182 19.2 11.9999 19.2C11.6817 19.2 11.3764 19.0736 11.1514 18.8485C10.9264 18.6235 10.7999 18.3183 10.7999 18C10.7999 17.6817 10.9264 17.3765 11.1514 17.1515C11.3764 16.9264 11.6817 16.8 11.9999 16.8C12.3182 16.8 12.6234 16.9264 12.8485 17.1515C13.0735 17.3765 13.1999 17.6817 13.1999 18ZM19.1999 13.2C19.1999 13.5183 19.0735 13.8235 18.8485 14.0485C18.6234 14.2736 18.3182 14.4 17.9999 14.4C17.6817 14.4 17.3764 14.2736 17.1514 14.0485C16.9264 13.8235 16.7999 13.5183 16.7999 13.2C16.7999 12.8817 16.9264 12.5765 17.1514 12.3515C17.3764 12.1264 17.6817 12 17.9999 12C18.3182 12 18.6234 12.1264 18.8485 12.3515C19.0735 12.5765 19.1999 12.8817 19.1999 13.2ZM19.1999 18C19.1999 18.3183 19.0735 18.6235 18.8485 18.8485C18.6234 19.0736 18.3182 19.2 17.9999 19.2C17.6817 19.2 17.3764 19.0736 17.1514 18.8485C16.9264 18.6235 16.7999 18.3183 16.7999 18C16.7999 17.6817 16.9264 17.3765 17.1514 17.1515C17.3764 16.9264 17.6817 16.8 17.9999 16.8C18.3182 16.8 18.6234 16.9264 18.8485 17.1515C19.0735 17.3765 19.1999 17.6817 19.1999 18Z" fill="#FBFFBD"/>
</svg>
