<svg width="24" height="24" viewBox="0 0 24 24" fill="none" xmlns="http://www.w3.org/2000/svg">
<path d="M12 23.9179C18.5641 23.9179 23.9179 18.5846 23.9179 12C23.9179 5.41536 18.5641 0.0820312 12 0.0820312C5.43588 0.0820312 0.0820312 5.43588 0.0820312 12C0.0820312 18.5641 5.43588 23.9179 12 23.9179ZM12 1.76408C17.641 1.76408 22.2359 6.35895 22.2359 12C22.2359 17.641 17.641 22.2359 12 22.2359C6.35895 22.2359 1.76408 17.641 1.76408 12C1.76408 6.35895 6.35895 1.76408 12 1.76408Z" fill="#9CA3AF"/>
<path d="M7.52814 16.3489C7.69224 16.513 7.89737 16.5951 8.12301 16.5951C8.34865 16.5951 8.55378 16.513 8.71788 16.3489L11.9999 13.0669L15.282 16.3489C15.4461 16.513 15.6512 16.5951 15.8769 16.5951C16.1025 16.5951 16.3076 16.513 16.4717 16.3489C16.7999 16.0207 16.7999 15.4874 16.4717 15.1592L13.1897 11.8771L16.4717 8.59508C16.7999 8.26687 16.7999 7.73354 16.4717 7.40533C16.1435 7.07713 15.6102 7.07713 15.282 7.40533L11.9999 10.6874L8.71788 7.40533C8.38967 7.07713 7.85634 7.07713 7.52814 7.40533C7.19993 7.73354 7.19993 8.26687 7.52814 8.59508L10.8102 11.8771L7.52814 15.1592C7.19993 15.4874 7.19993 16.0207 7.52814 16.3489Z" fill="#9CA3AF"/>
</svg>
