<svg width="38" height="38" viewBox="0 0 38 38" fill="none" xmlns="http://www.w3.org/2000/svg">
<path d="M19.0001 0.666504C8.86175 0.666504 0.666748 8.8615 0.666748 18.9998C0.666748 29.1382 8.86175 37.3332 19.0001 37.3332C29.1384 37.3332 37.3334 29.1382 37.3334 18.9998C37.3334 8.8615 29.1384 0.666504 19.0001 0.666504ZM19.0001 33.6665C10.9151 33.6665 4.33341 27.0848 4.33341 18.9998C4.33341 10.9148 10.9151 4.33317 19.0001 4.33317C27.0851 4.33317 33.6667 10.9148 33.6667 18.9998C33.6667 27.0848 27.0851 33.6665 19.0001 33.6665ZM25.5817 9.83317L19.0001 16.4148L12.4184 9.83317L9.83341 12.4182L16.4151 18.9998L9.83341 25.5815L12.4184 28.1665L19.0001 21.5848L25.5817 28.1665L28.1667 25.5815L21.5851 18.9998L28.1667 12.4182L25.5817 9.83317Z" fill="#FBFFBD"/>
</svg>
