<svg width="22" height="23" viewBox="0 0 22 23" fill="none" xmlns="http://www.w3.org/2000/svg">
<path d="M21.0496 13.5625L21.0275 13.5447L19.5481 12.3845C19.4545 12.3104 19.3797 12.2151 19.33 12.1065C19.2803 11.9979 19.2571 11.879 19.2622 11.7597V11.2178C19.2575 11.0992 19.281 10.9812 19.3308 10.8735C19.3806 10.7658 19.4553 10.6714 19.5486 10.5981L21.0275 9.4375L21.0496 9.41969C21.2776 9.22969 21.4307 8.96475 21.4814 8.67225C21.532 8.37976 21.477 8.07877 21.3261 7.82312L19.3241 4.35906C19.3218 4.35579 19.3197 4.35235 19.318 4.34875C19.1663 4.09664 18.9311 3.90562 18.6532 3.80886C18.3754 3.7121 18.0724 3.71571 17.7969 3.81906L17.7805 3.82516L16.0414 4.525C15.9317 4.56938 15.8129 4.58704 15.695 4.57653C15.5771 4.56602 15.4633 4.52763 15.3631 4.46453C15.2094 4.36766 15.0531 4.27609 14.8944 4.18984C14.7915 4.13403 14.7031 4.05481 14.6364 3.95856C14.5697 3.86232 14.5266 3.75176 14.5105 3.63578L14.2485 1.78L14.2428 1.74625C14.1858 1.45881 14.0315 1.19977 13.806 1.01265C13.5805 0.825538 13.2974 0.721757 13.0044 0.71875H8.99565C8.69849 0.719701 8.4112 0.825492 8.18439 1.01749C7.95758 1.20948 7.80581 1.47536 7.7558 1.76828L7.75159 1.79453L7.49049 3.65406C7.47448 3.7697 7.43168 3.88001 7.36552 3.9762C7.29936 4.07239 7.21166 4.1518 7.1094 4.20813C6.95019 4.29388 6.79385 4.38486 6.64065 4.48094C6.54065 4.54365 6.42719 4.58174 6.30961 4.59209C6.19202 4.60244 6.07366 4.58475 5.96424 4.54047L4.22377 3.83734L4.20737 3.83078C3.93149 3.72731 3.62807 3.72384 3.34989 3.82096C3.07172 3.91808 2.8364 4.10965 2.68487 4.36234L2.67877 4.37266L0.673929 7.83906C0.522818 8.09497 0.467665 8.39629 0.518333 8.68913C0.569 8.98197 0.722184 9.24724 0.950492 9.4375L0.972523 9.45531L2.4519 10.6155C2.54558 10.6896 2.62035 10.7849 2.67006 10.8935C2.71976 11.0021 2.74299 11.121 2.73784 11.2403V11.7822C2.74253 11.9008 2.71902 12.0188 2.66923 12.1265C2.61944 12.2342 2.54479 12.3286 2.45143 12.4019L0.972523 13.5625L0.950492 13.5803C0.72241 13.7703 0.569351 14.0353 0.518683 14.3277C0.468016 14.6202 0.523045 14.9212 0.673929 15.1769L2.67596 18.6409C2.67826 18.6442 2.6803 18.6477 2.68205 18.6512C2.83375 18.9034 3.06896 19.0944 3.34682 19.1911C3.62469 19.2879 3.92767 19.2843 4.20315 19.1809L4.21955 19.1748L5.95721 18.475C6.06697 18.4306 6.18571 18.413 6.30364 18.4235C6.42157 18.434 6.53531 18.4724 6.63549 18.5355C6.78924 18.6327 6.94549 18.7242 7.10424 18.8102C7.20717 18.866 7.29554 18.9452 7.36222 19.0414C7.42891 19.1377 7.47204 19.2482 7.48815 19.3642L7.74877 21.22L7.7544 21.2537C7.81154 21.5417 7.9662 21.8011 8.19231 21.9882C8.41841 22.1754 8.70213 22.2789 8.99565 22.2812H13.0044C13.3016 22.2803 13.5888 22.1745 13.8157 21.9825C14.0425 21.7905 14.1942 21.5246 14.2442 21.2317L14.2485 21.2055L14.5096 19.3459C14.5258 19.2301 14.569 19.1196 14.6355 19.0234C14.7021 18.9272 14.7903 18.8479 14.893 18.7919C15.0533 18.7056 15.2099 18.6142 15.3617 18.5191C15.4617 18.4564 15.5752 18.4183 15.6928 18.4079C15.8104 18.3976 15.9287 18.4153 16.0381 18.4595L17.7786 19.1603L17.795 19.1669C18.0709 19.2705 18.3744 19.2741 18.6526 19.177C18.9308 19.0798 19.1661 18.8881 19.3175 18.6353C19.3194 18.6318 19.3214 18.6283 19.3236 18.625L21.3256 15.1614C21.477 14.9055 21.5324 14.6041 21.4818 14.3112C21.4312 14.0182 21.278 13.7528 21.0496 13.5625ZM14.7458 11.6763C14.7117 12.4021 14.4674 13.1025 14.0426 13.6921C13.6178 14.2817 13.0308 14.7352 12.3531 14.9974C11.6754 15.2597 10.936 15.3193 10.225 15.1692C9.51402 15.019 8.86196 14.6655 8.34813 14.1516C7.83431 13.6377 7.48087 12.9856 7.33079 12.2746C7.18071 11.5635 7.24045 10.8242 7.50276 10.1465C7.76506 9.46881 8.21863 8.88192 8.8083 8.45721C9.39797 8.0325 10.0983 7.78827 10.8242 7.75422C11.3454 7.73127 11.8656 7.81702 12.3518 8.00601C12.838 8.195 13.2796 8.48309 13.6484 8.85197C14.0172 9.22085 14.3053 9.66244 14.4942 10.1487C14.6831 10.6349 14.7688 11.1551 14.7458 11.6763Z" fill="#FBFFBD"/>
</svg>
