<svg width="26" height="26" viewBox="0 0 26 26" fill="none" xmlns="http://www.w3.org/2000/svg">
<path d="M17.956 3.76605L22.234 8.04404M6.99999 7.00004H2.5C2.10217 7.00004 1.72064 7.15808 1.43934 7.43938C1.15803 7.72068 1 8.10221 1 8.50004V23.5C1 23.8978 1.15803 24.2794 1.43934 24.5607C1.72064 24.842 2.10217 25 2.5 25H19C19.3978 25 19.7793 24.842 20.0606 24.5607C20.3419 24.2794 20.5 23.8978 20.5 23.5V16.75M24.1135 1.88505C24.3945 2.16601 24.6175 2.49959 24.7696 2.86673C24.9217 3.23387 25 3.62739 25 4.0248C25 4.42221 24.9217 4.81572 24.7696 5.18286C24.6175 5.55001 24.3945 5.88358 24.1135 6.16454L13.8475 16.4305L8.49999 17.5L9.56948 12.1525L19.8355 1.88655C20.1162 1.60536 20.4496 1.38227 20.8166 1.23006C21.1837 1.07786 21.5771 0.999512 21.9745 0.999512C22.3718 0.999512 22.7652 1.07786 23.1323 1.23006C23.4993 1.38227 23.8327 1.60536 24.1135 1.88655V1.88505Z" stroke="#088395" stroke-width="2" stroke-linecap="round" stroke-linejoin="round"/>
</svg>
