<svg width="24" height="24" viewBox="0 0 24 24" fill="none" xmlns="http://www.w3.org/2000/svg">
<path d="M22 0H2C1.46957 0 0.960859 0.210714 0.585786 0.585786C0.210714 0.960859 0 1.46957 0 2V22C0 22.5304 0.210714 23.0391 0.585786 23.4142C0.960859 23.7893 1.46957 24 2 24H22C22.5304 24 23.0391 23.7893 23.4142 23.4142C23.7893 23.0391 24 22.5304 24 22V2C24 1.46957 23.7893 0.960859 23.4142 0.585786C23.0391 0.210714 22.5304 0 22 0ZM10.4625 20.0613C9.3482 20.8208 7.99055 21.1371 6.65531 20.9482C5.32007 20.7594 4.10336 20.0791 3.24337 19.0403C2.38337 18.0016 1.942 16.6793 2.00565 15.3323C2.0693 13.9853 2.63339 12.7105 3.5875 11.7575L6.75875 8.58625C7.77468 7.57218 9.15145 7.00264 10.5869 7.00264C12.0223 7.00264 13.3991 7.57218 14.415 8.58625C14.9639 9.13188 15.3882 9.78986 15.6588 10.515C15.7047 10.6381 15.726 10.7691 15.7213 10.9004C15.7167 11.0317 15.6862 11.1609 15.6317 11.2804C15.5771 11.4 15.4995 11.5076 15.4034 11.5972C15.3072 11.6868 15.1944 11.7565 15.0713 11.8025C14.9481 11.8485 14.8172 11.8697 14.6858 11.8651C14.5545 11.8604 14.4254 11.83 14.3058 11.7754C14.1863 11.7208 14.0786 11.6433 13.9891 11.5471C13.8995 11.451 13.8297 11.3381 13.7838 11.215C13.5828 10.6802 13.2509 10.2044 12.8185 9.83102C12.3861 9.45765 11.867 9.19868 11.3086 9.07781C10.7503 8.95694 10.1705 8.97802 9.62244 9.13912C9.07434 9.30023 8.57539 9.59622 8.17125 10L5 13.1712C4.39887 13.7724 4.04358 14.5762 4.00359 15.4254C3.96361 16.2746 4.2418 17.1081 4.78379 17.7631C5.32577 18.4181 6.09257 18.8474 6.93425 18.967C7.77594 19.0866 8.63198 18.888 9.335 18.41C9.44314 18.3291 9.56653 18.271 9.69774 18.2391C9.82895 18.2072 9.96525 18.2023 10.0984 18.2245C10.2316 18.2467 10.3589 18.2957 10.4727 18.3684C10.5864 18.4412 10.6843 18.5362 10.7603 18.6478C10.8363 18.7594 10.889 18.8852 10.915 19.0177C10.9411 19.1502 10.9401 19.2866 10.912 19.4187C10.884 19.5507 10.8295 19.6758 10.7518 19.7862C10.6741 19.8966 10.5748 19.9902 10.46 20.0613H10.4625ZM20.4137 12.2425L17.2425 15.4137C16.7412 15.9182 16.1447 16.3182 15.4877 16.5905C14.8307 16.8628 14.1262 17.002 13.415 17C12.3133 16.9986 11.2383 16.6614 10.3332 16.0334C9.42802 15.4054 8.73579 14.5164 8.34875 13.485C8.25592 13.2364 8.26567 12.961 8.37585 12.7196C8.48603 12.4781 8.68761 12.2903 8.93625 12.1975C9.18489 12.1047 9.46022 12.1144 9.70168 12.2246C9.94313 12.3348 10.1309 12.5364 10.2238 12.785C10.4678 13.4336 10.9031 13.9928 11.4722 14.3884C12.0412 14.7839 12.717 14.9972 13.41 15C13.8587 15.0013 14.3031 14.9136 14.7177 14.7419C15.1322 14.5703 15.5086 14.3181 15.825 14L19 10.8287C19.6011 10.2276 19.9564 9.42384 19.9964 8.57464C20.0364 7.72544 19.7582 6.89186 19.2162 6.23688C18.6742 5.58191 17.9074 5.15263 17.0657 5.033C16.2241 4.91337 15.368 5.11198 14.665 5.59C14.5569 5.67086 14.4335 5.72899 14.3023 5.76088C14.1711 5.79276 14.0347 5.79774 13.9016 5.77552C13.7684 5.7533 13.6411 5.70434 13.5273 5.63158C13.4136 5.55883 13.3157 5.46379 13.2397 5.3522C13.1637 5.24061 13.111 5.11478 13.085 4.9823C13.0589 4.84981 13.0599 4.71342 13.088 4.58134C13.116 4.44926 13.1705 4.32423 13.2482 4.21379C13.3259 4.10335 13.4252 4.00979 13.54 3.93875C14.6545 3.18305 16.0106 2.86972 17.3437 3.05989C18.6768 3.25007 19.8911 3.93011 20.7499 4.96731C21.6086 6.00452 22.0501 7.32448 21.9882 8.66962C21.9263 10.0148 21.3654 11.2886 20.415 12.2425H20.4137Z" fill="#FBFFBD"/>
</svg>
