<svg width="11" height="15" viewBox="0 0 11 15" fill="none" xmlns="http://www.w3.org/2000/svg">
<path d="M5.5 14.2014L1.282 9.22692C1.22339 9.15222 1.16539 9.07705 1.108 9.00142C0.387857 8.05211 -0.00133722 6.89296 3.45209e-06 5.70142C3.45209e-06 4.24273 0.579466 2.84378 1.61092 1.81233C2.64237 0.780879 4.04131 0.201416 5.5 0.201416C6.95869 0.201416 8.35764 0.780879 9.38909 1.81233C10.4205 2.84378 11 4.24273 11 5.70142C11.0012 6.89239 10.6122 8.05096 9.8925 8.99992L9.892 9.00142C9.892 9.00142 9.742 9.19842 9.7195 9.22492L5.5 14.2014ZM1.9065 8.39892C1.9065 8.39892 2.023 8.55292 2.0495 8.58592L5.5 12.6554L8.955 8.58042C8.977 8.55292 9.0945 8.39742 9.0945 8.39742C9.68311 7.62199 10.0012 6.67494 10 5.70142C10 4.50794 9.5259 3.36335 8.68198 2.51944C7.83807 1.67552 6.69348 1.20142 5.5 1.20142C4.30653 1.20142 3.16194 1.67552 2.31802 2.51944C1.47411 3.36335 1 4.50794 1 5.70142C0.99877 6.67557 1.31723 7.62321 1.9065 8.39892Z" fill="#FBFFBD"/>
</svg>
