<svg width="27" height="24" viewBox="0 0 27 24" fill="none" xmlns="http://www.w3.org/2000/svg">
<path d="M12.6975 21.5341L12.6961 21.5328C9.30859 18.461 6.57743 15.9788 4.68146 13.6592C2.79647 11.3531 1.8418 9.3301 1.8418 7.19346C1.8418 3.70552 4.55801 1 8.03526 1C10.0087 1 11.9193 1.92386 13.162 3.37172L13.9208 4.25587L14.6797 3.37172C15.9223 1.92386 17.8329 1 19.8064 1C23.2836 1 25.9998 3.70552 25.9998 7.19346C25.9998 9.3301 25.0452 11.3531 23.1602 13.6592C21.2642 15.9788 18.533 18.461 15.1455 21.5328L15.1441 21.5341L13.9208 22.6477L12.6975 21.5341Z" stroke="#FBFFBD" stroke-width="2"/>
</svg>
