<svg width="100" height="41" viewBox="0 0 100 41" fill="none" xmlns="http://www.w3.org/2000/svg">
<path d="M84.4047 6.75125C84.3286 6.79881 84.1669 6.84637 84.0527 6.84637C83.5486 6.84637 81.8364 8.01637 81.8364 8.34929C81.8364 8.40636 81.8079 8.46344 81.7698 8.48246C81.6176 8.53954 81.3513 9.19588 81.2752 9.67148C81.1515 10.461 81.2561 37.9131 81.3798 38.4267C81.6747 39.5777 82.4832 40.2911 83.6247 40.4053C84.8232 40.5099 85.841 39.9106 86.4117 38.7406L86.64 38.2841V34.2224C86.64 31.987 86.6686 30.1417 86.6971 30.1036C86.7351 30.0751 86.9064 30.2273 87.0776 30.4556C87.2488 30.6838 87.42 30.8836 87.4486 30.9121C87.4771 30.9407 87.772 31.3021 88.1144 31.7207C88.4473 32.1392 88.7517 32.5007 88.7803 32.5292C88.8088 32.5577 89.0466 32.8526 89.3034 33.1951C89.5603 33.5375 89.7981 33.8324 89.8266 33.8609C89.8551 33.8894 90.0929 34.1843 90.3498 34.5268C90.6066 34.8692 90.8444 35.1641 90.8729 35.1926C90.9015 35.2211 91.1393 35.516 91.3961 35.8585C91.6624 36.2009 91.8907 36.4958 91.9193 36.5243C91.9478 36.5528 92.1856 36.8477 92.4424 37.1806C92.7088 37.5231 93.0227 37.9131 93.1559 38.0463C93.289 38.1889 93.5268 38.4553 93.679 38.636C94.031 39.045 94.9727 39.6728 95.4863 39.8536C96.5327 40.2055 98.2639 40.3387 98.9963 40.1199C99.9475 39.8345 100.29 38.7121 99.6717 37.9036C99.5385 37.7228 99.4339 37.5421 99.4339 37.4946C99.4339 37.4375 99.4053 37.3804 99.3578 37.3614C99.3197 37.3424 99.139 37.1426 98.9583 36.9048C98.7775 36.6765 98.5588 36.4102 98.4827 36.3246C98.2544 36.0868 97.988 35.7538 97.4839 35.0975C97.2271 34.755 96.9893 34.4602 96.9607 34.4316C96.9322 34.4031 96.6944 34.1082 96.4376 33.7658C96.1807 33.4233 95.9429 33.1285 95.9144 33.0999C95.8858 33.0714 95.7527 32.9002 95.629 32.7194C95.5054 32.5387 95.3722 32.3675 95.3437 32.339C95.3151 32.3104 95.0868 32.0155 94.8205 31.6731C94.5637 31.3307 94.3259 31.0358 94.2973 31.0073C94.2688 30.9787 94.0405 30.6838 93.7741 30.3414C93.5173 29.999 93.27 29.7041 93.232 29.6946C93.1844 29.6756 93.1559 29.6185 93.1559 29.5709C93.1559 29.5138 93.0322 29.3426 92.8705 29.1714C92.7183 29.0002 92.5851 28.829 92.5851 28.7814C92.5851 28.7339 92.49 28.6102 92.3759 28.496C92.2522 28.3819 91.9668 28.0395 91.7385 27.7256C91.5007 27.4117 91.2629 27.1073 91.2059 27.0597C91.1488 27.0026 90.892 26.6887 90.6351 26.3463C90.3783 26.0039 90.1215 25.6995 90.0739 25.6614C89.9883 25.6044 90.1215 25.3761 90.3973 25.1097C90.4259 25.0812 90.559 24.91 90.6922 24.7292C90.8349 24.5485 91.0251 24.3012 91.1203 24.187C91.2249 24.0824 91.3676 23.8922 91.4437 23.778C91.5198 23.6639 91.672 23.4736 91.7766 23.3595C91.9763 23.1312 92.081 22.998 93.1654 21.6378C93.5363 21.1622 93.9073 20.6961 94.0024 20.5914C94.088 20.4868 94.3734 20.1253 94.6302 19.7829C94.8966 19.4405 95.1344 19.1456 95.1629 19.1171C95.201 19.0885 95.3912 18.8507 95.5815 18.5939C95.7812 18.3275 95.981 18.0993 96.0285 18.0897C96.0666 18.0707 96.1046 17.9946 96.1046 17.9185C96.1046 17.8424 96.1427 17.7854 96.1807 17.7854C96.2188 17.7854 96.4185 17.5666 96.6183 17.3097C96.818 17.0434 97.1319 16.6724 97.3032 16.4727C97.6836 16.0446 98.2544 15.3502 98.5778 14.9317C98.711 14.7605 98.9297 14.4846 99.0819 14.3134C99.2246 14.1422 99.3388 13.952 99.3388 13.8949C99.3388 13.8378 99.3768 13.7902 99.4339 13.7902C99.4814 13.7902 99.548 13.6856 99.5861 13.5524C99.6146 13.4193 99.6812 13.3146 99.7288 13.3146C99.8714 13.3146 99.8334 12.2112 99.6812 12.0876C99.4149 11.8688 95.8097 12.1161 95.629 12.3634C95.6005 12.4015 95.4768 12.4585 95.3437 12.4871C94.7729 12.6107 93.679 13.1624 93.3651 13.4763C93.2985 13.5429 93.2129 13.6 93.1749 13.6C93.0607 13.6 92.2807 14.38 91.7766 14.9793C91.5198 15.2932 91.282 15.569 91.2534 15.5976C91.2249 15.6261 91.0346 15.8544 90.8254 16.1207C90.6161 16.3776 90.4164 16.6058 90.3783 16.6249C90.3307 16.6439 90.3022 16.72 90.3022 16.7866C90.3022 16.8532 90.2642 16.9293 90.2166 16.9483C90.1785 16.9578 89.8646 17.3193 89.5317 17.7378C89.1988 18.1563 88.9039 18.5178 88.8754 18.5463C88.8468 18.5749 88.6566 18.8032 88.4473 19.0695C88.2381 19.3263 87.9717 19.6402 87.8576 19.7544C87.7339 19.8685 87.6388 19.9922 87.6388 20.0207C87.6388 20.0492 87.5151 20.211 87.3534 20.3822C87.2012 20.5534 87.0681 20.7246 87.0681 20.7627C87.0681 20.8768 86.8112 21.1146 86.6971 21.1146C86.621 21.1146 86.583 18.9268 86.5734 13.9044L86.5449 6.70369L85.5461 6.67515C84.9944 6.66564 84.4808 6.69418 84.4047 6.75125Z" fill="white"/>
<path d="M72.5428 34.5458C72.4191 34.7551 72.3906 36.9239 72.5143 37.4756C72.5713 37.7609 72.6474 38.1224 72.676 38.2651C72.7616 38.7027 73.2752 39.5873 73.6367 39.9392C73.9791 40.2531 73.9887 40.2626 74.7021 40.2056C75.2347 40.177 75.4726 40.1961 75.6057 40.2912C75.8625 40.4814 77.4891 40.4719 77.6508 40.2817C77.7364 40.177 77.746 39.9297 77.7079 39.4066C77.6033 38.1509 77.3655 37.3044 77.0135 36.9239C76.9469 36.8573 76.8899 36.7622 76.8899 36.7146C76.8899 36.5529 75.7865 35.5066 75.3204 35.2307C74.1979 34.5649 72.7616 34.2129 72.5428 34.5458Z" fill="white"/>
<path d="M77.0706 14.8176C76.4998 15.4644 76.3667 15.6356 75.9386 16.311C75.3013 17.3002 75.3013 17.3098 74.9874 17.9756C74.8257 18.318 74.6355 18.7176 74.5594 18.8602C74.4833 19.0124 74.4167 19.1741 74.4167 19.2312C74.4167 19.2788 74.3596 19.4595 74.293 19.6212C74.0552 20.1634 73.846 20.8768 73.846 21.0956C73.846 21.2193 73.8079 21.3905 73.7508 21.4856C73.6652 21.6473 73.5986 21.9612 73.3703 23.3024C73.2086 24.187 73.1896 24.2441 72.8947 24.3963L72.6094 24.5485V27.7065C72.6094 29.4378 72.6379 31.3402 72.6664 31.9109L72.733 32.9573L73.456 33.1285C74.4738 33.3758 75.1777 33.6231 76.1098 34.0607C76.5474 34.2604 76.9374 34.4316 76.9755 34.4316C77.004 34.4316 77.023 33.9846 77.004 33.4424L76.9659 32.4531L77.2323 32.4151L77.5081 32.3865L77.5367 23.4166C77.5462 18.2419 77.5176 14.4561 77.4701 14.4561C77.4225 14.4561 77.2418 14.6178 77.0706 14.8176Z" fill="white"/>
<path d="M75.9766 13.6855C75.8149 13.7235 75.6341 13.7901 75.5771 13.8186C75.4344 13.9137 73.9505 14.1706 73.5415 14.1706C73.3512 14.1706 73.161 14.123 73.1325 14.0755C73.1039 14.0184 72.9517 13.9803 72.79 13.9803H72.5142V17.2811C72.5142 19.0979 72.5522 20.5437 72.5903 20.4866C72.6378 20.4391 72.8376 19.8969 73.0373 19.2786C73.2466 18.6698 73.4368 18.1657 73.4749 18.1657C73.5129 18.1657 73.57 18.0515 73.6081 17.9089C73.6366 17.7662 73.7032 17.6235 73.7317 17.595C73.7698 17.5664 73.8839 17.3762 73.9885 17.1669C74.2168 16.7103 74.8732 15.683 75.0254 15.5498C75.0824 15.4928 75.2537 15.293 75.3963 15.0933C75.5485 14.8935 75.7388 14.6652 75.8339 14.5701C76.0337 14.3703 76.5093 13.7235 76.5093 13.6569C76.5093 13.5903 76.3666 13.5998 75.9766 13.6855Z" fill="white"/>
<path d="M71.5249 1.10088C71.4964 1.3482 71.4678 1.71917 71.4678 1.93795C71.4678 2.50868 71.0207 4.75355 70.8686 5.01038C70.7734 5.15306 70.5166 7.03647 70.5166 7.5311C70.5166 8.33964 70.8495 9.45256 71.3156 10.223C71.4773 10.4799 71.639 10.7082 71.6771 10.7272C71.7151 10.7462 71.7532 10.8128 71.7532 10.8699C71.7532 10.9745 72.4 11.6974 72.7424 11.9733C72.8376 12.0399 73.0849 12.116 73.3037 12.135C73.5224 12.154 73.6366 12.1445 73.5605 12.116C73.2846 11.9828 72.7805 11.4216 72.8185 11.2694C72.8376 11.1552 73.0278 11.2884 73.532 11.745C74.1217 12.2872 74.2549 12.3633 74.5783 12.3633C75.168 12.3633 75.2346 12.2682 75.092 11.6784C75.0254 11.4026 74.9207 11.003 74.8541 10.7938C74.7876 10.5845 74.6544 10.1565 74.5593 9.84256C74.4641 9.52866 74.3595 9.18622 74.312 9.08159C74.2739 8.97695 74.1693 8.63451 74.0837 8.32061C73.9981 8.00671 73.8649 7.59769 73.7983 7.41696C73.6081 6.9033 73.3702 6.07574 73.3702 5.93306C73.3702 5.85696 73.3322 5.72379 73.2846 5.62867C73.2371 5.54306 73.1229 5.27672 73.0373 5.03892C72.9422 4.80111 72.809 4.4777 72.7424 4.30648C72.5998 3.98307 72.5617 3.13649 72.6949 3.13649C72.79 3.13649 73.3702 4.29697 73.7032 5.1816C73.8459 5.54306 74.0171 5.98062 74.0932 6.15184C74.1693 6.31355 74.2263 6.5133 74.2263 6.5894C74.2263 6.67501 74.2739 6.77013 74.3215 6.79867C74.3785 6.8272 74.4166 6.92233 74.4166 7.00794C74.4166 7.08403 74.4737 7.28379 74.5498 7.44549C74.6734 7.73086 74.8066 8.16842 75.3773 10.0804C75.6627 11.0601 75.8054 11.3169 76.0622 11.3169C76.319 11.3169 76.7756 10.6701 77.1371 9.795C77.3749 9.22427 77.3939 9.07207 77.3939 7.84501C77.3939 6.77964 77.3654 6.45623 77.2417 6.22794C77.1561 6.06623 77.08 5.89501 77.08 5.82843C77.08 5.5716 76.5473 4.7155 76.1478 4.34453C75.9195 4.12575 75.6532 3.86892 75.5676 3.78331C75.4819 3.6977 74.9493 3.39331 74.3881 3.09844C73.8268 2.80356 73.1324 2.39454 72.8566 2.18527C72.3905 1.83332 71.8483 1.17698 71.8483 0.958201C71.8483 0.910641 71.7912 0.825031 71.7151 0.767959C71.6105 0.682349 71.582 0.748934 71.5249 1.10088ZM74.3405 3.86892C74.4356 3.95453 74.5117 4.09721 74.5117 4.19234C74.5117 4.28746 74.5593 4.39209 74.6068 4.42063C74.6639 4.44916 74.702 4.41112 74.702 4.32551C74.702 4.06868 75.0063 4.20185 75.2441 4.5538C75.4154 4.81063 75.4629 5.01038 75.4629 5.48599C75.4629 6.07574 75.2917 6.84623 75.1585 6.84623C74.9873 6.84623 74.5117 5.5716 74.5117 5.1055C74.5117 4.96282 74.3881 4.60136 74.2263 4.30648C74.0741 4.01161 73.941 3.76429 73.941 3.74526C73.941 3.65014 74.1788 3.72624 74.3405 3.86892ZM72.1527 4.29697C72.362 4.69648 72.6473 5.60014 72.5903 5.65721C72.5237 5.72379 72.2098 5.42892 71.9624 5.06745C71.7532 4.77258 71.6961 4.43014 71.8103 4.14478C71.8959 3.91648 71.9815 3.95453 72.1527 4.29697ZM76.4522 5.63818C76.5473 5.85696 76.6805 6.14233 76.7376 6.26599C76.7946 6.38964 76.8422 6.92233 76.8422 7.45501C76.8422 8.25403 76.8041 8.49183 76.6329 8.86281C76.3571 9.43354 76.1098 9.58573 75.7863 9.36695C75.501 9.18622 75.501 9.11963 75.7959 8.65354C75.929 8.44427 76.0337 8.19696 76.0337 8.09232C76.0337 7.98769 76.0812 7.87354 76.1288 7.84501C76.1858 7.80696 76.3095 7.61671 76.4141 7.40745C76.5758 7.09354 76.5854 7.03647 76.4617 7.03647C76.3856 7.03647 76.319 7.08403 76.319 7.14111C76.319 7.19818 76.2715 7.22672 76.2049 7.20769C76.1288 7.17915 76.0812 6.8272 76.0527 6.15184C76.0241 5.3338 76.0432 5.14355 76.1478 5.1816C76.2144 5.21014 76.3476 5.40989 76.4522 5.63818ZM71.8483 6.08526C72.029 6.34208 72.2098 6.56086 72.2573 6.56086C72.2954 6.56086 72.3239 6.60842 72.3239 6.67501C72.3239 6.73208 72.3905 6.85574 72.4666 6.94135C72.5522 7.03647 72.6378 7.20769 72.6568 7.32184C72.6854 7.44549 72.7995 7.65476 72.9232 7.78793C73.2371 8.12086 73.5034 8.54891 73.4368 8.61549C73.3132 8.73915 72.0385 7.89257 72.0385 7.6833C72.0385 7.57866 71.7912 7.32184 71.6961 7.32184C71.6581 7.32184 71.5439 7.25525 71.4488 7.16013C71.3156 7.03647 71.2776 6.86525 71.2776 6.30404C71.2776 5.45745 71.3822 5.4194 71.8483 6.08526ZM71.7342 8.41573C71.9815 8.59647 72.2954 8.83427 72.4381 8.94842C72.9612 9.34793 74.4166 10.8413 74.4166 10.984C74.4166 11.1647 74.3215 11.1647 74.0837 10.9935C73.979 10.9269 73.5415 10.6891 73.1039 10.4608C72.1907 9.99475 71.8578 9.7189 71.5344 9.12915C71.2966 8.69159 71.1159 8.08281 71.23 8.08281C71.2586 8.08281 71.4868 8.235 71.7342 8.41573ZM74.4166 11.764C74.4166 11.8306 74.3881 11.8877 74.35 11.8877C74.2263 11.8877 73.7602 11.2789 73.8173 11.1933C73.8839 11.0887 74.4166 11.5928 74.4166 11.764Z" fill="white"/>
<path d="M60.3197 28.6009C60.2436 28.8958 60.4149 33.7946 60.51 34.2892C60.6717 35.0692 61.3185 36.4485 61.8607 37.1334C62.3553 37.7802 63.24 38.5982 63.8202 38.9597C64.1912 39.188 64.5431 39.3782 64.6002 39.3782C64.6668 39.3782 64.7144 39.4163 64.7144 39.4733C64.7144 39.5209 64.7619 39.5685 64.819 39.5685C64.8761 39.5685 65.0568 39.6255 65.2185 39.6921C65.6941 39.9014 66.5217 40.1297 67.0448 40.1963C67.3112 40.2343 67.6251 40.2819 67.7583 40.3009C67.8914 40.3294 68.7951 40.3675 69.7843 40.396C71.5251 40.4436 71.5631 40.4341 71.5631 40.2533C71.5631 40.1392 71.5251 40.025 71.468 39.9965C71.4204 39.968 71.3729 39.8348 71.3729 39.7111C71.3729 39.5875 71.3348 39.4638 71.2873 39.4258C71.2397 39.3972 71.1636 39.1404 71.1351 38.8551C71.097 38.5697 71.0304 38.3319 70.9924 38.3319C70.9448 38.3319 70.8878 37.9704 70.8497 37.5233L70.7831 36.7243L69.2422 36.6863C67.7963 36.6482 67.0258 36.5531 66.379 36.3153C65.3517 35.9443 64.0961 35.1073 63.6205 34.4604C63.4683 34.2607 63.3161 34.0799 63.2875 34.0514C63.1544 33.9373 62.6407 33.1097 62.4219 32.6246C62.2792 32.3392 62.0319 31.6734 61.8607 31.1502C61.699 30.627 61.5278 30.1324 61.4802 30.0563C61.4422 29.9707 61.3756 29.7709 61.3375 29.5997C61.309 29.4285 61.2329 29.2953 61.1854 29.2953C61.1378 29.2953 61.0997 29.2383 61.0997 29.1717C61.0997 29.048 60.529 28.4392 60.4149 28.4392C60.3863 28.4392 60.3388 28.5153 60.3197 28.6009Z" fill="white"/>
<path d="M56.0869 16.5681C56.1154 16.7964 56.2295 17.1483 56.3342 17.3671C56.5149 17.7381 57.0666 18.3564 57.2093 18.3564C57.2473 18.3564 57.3425 18.4134 57.409 18.48C57.6088 18.6703 58.5125 18.9271 58.9976 18.9271C59.2354 18.9271 59.6064 18.9937 59.8156 19.0603L60.1961 19.1934L60.2532 22.4656C60.3293 26.9553 60.3198 26.6319 60.4815 26.6319C60.5671 26.6319 60.9381 26.9458 61.3281 27.3168C61.9844 27.9732 62.4505 28.7341 62.6598 29.4856C62.6978 29.6188 62.7644 29.809 62.812 29.9136C62.8881 30.0944 62.9641 30.3607 63.202 31.3405C63.259 31.5497 63.4398 32.0158 63.6205 32.3868C64.0866 33.3475 64.6098 33.9658 65.4183 34.4795C66.6834 35.2785 67.8344 35.5258 69.7749 35.4117C70.8307 35.3451 70.7831 35.3926 70.8973 34.3843C70.9353 34.0134 71.0019 33.6234 71.04 33.4997L71.1066 33.2904H69.1946C67.0354 33.2904 66.8166 33.2334 66.1983 32.52C65.6085 31.8256 65.5705 31.4927 65.5705 27.3834V23.7212L65.3137 23.198C65.171 22.9222 65.0283 22.6654 64.9998 22.6368C64.9617 22.6083 64.8951 22.5227 64.8476 22.4371C64.5146 21.8378 63.1449 20.4395 62.3363 19.8783C62.1556 19.7451 61.9844 19.612 61.9559 19.5834C61.8322 19.4407 60.5671 18.6417 60.4625 18.6417C60.3959 18.6417 60.3388 18.6037 60.3388 18.5466C60.3388 18.499 60.2342 18.4325 60.101 18.3944C59.9678 18.3659 59.8632 18.2993 59.8632 18.2517C59.8632 18.2042 59.8156 18.1661 59.7681 18.1661C59.711 18.1661 59.4922 18.052 59.2639 17.9093C58.8264 17.6239 58.7693 17.5859 57.9132 17.1198C57.5993 16.9486 57.1712 16.7108 56.962 16.5871C56.7527 16.4729 56.4578 16.3208 56.3056 16.2637L56.0298 16.159L56.0869 16.5681Z" fill="white"/>
<path d="M60.1865 6.85597C60.1485 6.92255 60.139 8.35889 60.158 10.0711L60.196 13.172L59.1402 13.2291C57.6848 13.3147 56.8763 13.7047 56.6195 14.4467C56.4578 14.9033 56.5719 15.0079 58.1985 15.8164C58.5124 15.9781 58.7882 16.1303 58.8168 16.1589C58.8453 16.1874 59.0356 16.3015 59.2448 16.4062C59.6919 16.625 62.2316 18.1564 62.4029 18.2991C62.6597 18.5274 62.7738 18.613 62.8785 18.651C63.0497 18.7176 63.8487 19.412 64.6953 20.2206C65.2565 20.7627 65.5038 20.953 65.5419 20.8579C65.5704 20.7818 65.5799 20.3727 65.5514 19.9447C65.5228 19.5167 65.5228 19.1076 65.5419 19.041C65.5704 18.9554 65.9128 18.9269 66.807 18.9269C67.8153 18.9269 68.1006 18.8984 68.4716 18.7367C68.9377 18.5369 69.946 17.6523 69.946 17.443C69.946 17.3669 69.984 17.3098 70.0221 17.3098C70.0982 17.3098 70.2694 16.7772 70.3931 16.1398C70.4597 15.8164 70.2694 15.0935 70.0126 14.6464C69.7843 14.2659 69.0994 13.6001 68.9282 13.6001C68.8616 13.6001 68.8045 13.562 68.8045 13.524C68.8045 13.3528 67.7487 13.1816 66.7119 13.172L65.618 13.1625V12.0211C65.6085 9.9284 65.266 8.9962 64.115 7.88328C63.9153 7.69304 63.5919 7.45523 63.4016 7.36963C63.2019 7.2745 62.9831 7.16987 62.8975 7.13182C62.2316 6.80841 60.3387 6.61817 60.1865 6.85597Z" fill="white"/>
<path d="M49.067 13.4098C48.9624 13.4574 48.7626 13.4954 48.6295 13.4954C47.9636 13.5145 46.5939 14.1042 45.7663 14.732C43.8924 16.1398 42.9222 17.814 42.789 19.8781C42.7224 20.991 42.9031 22.4464 43.2075 23.1598C43.4548 23.7495 43.7783 24.3678 44.0256 24.7103C44.3109 25.1193 45.6997 26.432 45.9946 26.5747C46.0612 26.6032 46.2514 26.7173 46.4036 26.822C46.5653 26.9171 46.8792 27.0978 47.117 27.2215C47.3548 27.3451 47.5641 27.4688 47.5926 27.5068C47.6212 27.5354 47.7638 27.602 47.9065 27.6305C48.0492 27.6686 48.1634 27.7351 48.1634 27.7732C48.1634 27.8112 48.2585 27.8683 48.3821 27.9064C48.7626 28.0015 49.9136 28.7434 50.2751 29.1334C50.6936 29.5805 51.017 30.1607 51.017 30.4842C51.017 30.6078 51.0646 30.741 51.1121 30.7695C51.1692 30.7981 51.2073 31.0549 51.2073 31.3402C51.2073 31.6256 51.1692 31.8824 51.1121 31.911C51.0646 31.9395 51.017 32.0632 51.017 32.1868C51.017 32.5578 50.5414 33.3663 50.0848 33.7754C49.6187 34.1844 48.9624 34.5268 48.6485 34.5268C48.5438 34.5268 48.4297 34.5649 48.4012 34.6219C48.306 34.7836 46.5653 34.7266 45.8614 34.5363C45.5095 34.4507 45.1861 34.3461 45.1575 34.308C45.1195 34.27 44.9958 34.2415 44.8912 34.2415C44.777 34.2415 44.5678 34.1749 44.4251 34.0988C44.2824 34.0227 44.0161 33.9371 43.8353 33.899C43.569 33.8515 43.5024 33.8705 43.5024 33.9941C43.5024 34.0797 43.4644 34.1463 43.4073 34.1463C43.3597 34.1463 43.3122 34.2319 43.3122 34.3271C43.3122 34.4317 43.2551 34.5744 43.198 34.641C43.1314 34.7076 42.9222 35.0595 42.7414 35.4115C42.5607 35.7634 42.38 36.0488 42.3419 36.0488C42.3039 36.0488 42.2658 36.1058 42.2658 36.1819C42.2658 36.258 42.2087 36.3817 42.1422 36.4483C42.0756 36.5149 41.8092 36.8478 41.5524 37.1902C41.2956 37.5327 40.9817 37.9036 40.8675 38.0083C40.5917 38.2651 40.5917 38.3983 40.8675 38.4839C40.9817 38.5219 41.0958 38.5695 41.1244 38.6075C41.1719 38.6646 41.5334 38.8453 42.1897 39.1307C42.38 39.2163 42.5987 39.2829 42.6748 39.2829C42.7605 39.2829 42.8461 39.3209 42.8841 39.3685C42.9126 39.4256 43.1409 39.4922 43.3883 39.5302C43.6356 39.5588 43.8829 39.6253 43.9304 39.6634C43.9875 39.7109 44.33 39.768 44.6914 39.8061C45.0624 39.8441 45.3858 39.9202 45.4143 39.9583C45.4904 40.0819 49.1241 40.0724 49.2477 39.9488C49.2953 39.9012 49.4285 39.8536 49.5426 39.8536C49.7899 39.8536 51.4355 39.2734 51.4736 39.1688C51.4926 39.1307 51.5592 39.0927 51.6258 39.0927C51.7494 39.0927 52.7958 38.4078 53.2619 38.0273C53.8421 37.5612 54.6602 36.6385 54.9931 36.0963C55.1738 35.7824 55.3641 35.5066 55.3926 35.478C55.4592 35.4305 55.9443 34.2034 56.1441 33.5566C56.5721 32.2059 56.4485 29.4378 55.9063 28.1822C55.8302 28.0205 55.7731 27.8207 55.7731 27.7446C55.7731 27.659 55.7446 27.5829 55.7065 27.5639C55.6589 27.5449 55.5353 27.3451 55.4211 27.1073C55.1738 26.6222 55.0121 26.3654 54.8504 26.1751C54.7838 26.1086 54.7267 26.0134 54.7267 25.9754C54.7267 25.8137 53.338 24.52 52.7577 24.13C51.7875 23.5022 51.6068 23.4166 50.0658 22.8174C49.1431 22.4654 48.8958 22.3227 48.4963 21.9327C48.0968 21.5332 47.9731 21.2574 47.9731 20.6866C47.9731 20.0779 48.1538 19.6974 48.6485 19.2693C49.0956 18.8888 49.6758 18.7557 51.2453 18.6796C52.2726 18.6225 52.6531 18.4988 53.1668 18.0327C53.7375 17.5381 53.7755 17.3383 53.7755 15.2266V13.3147L51.5212 13.3242C50.2751 13.3242 49.1716 13.3623 49.067 13.4098Z" fill="white"/>
<path d="M36.9673 13.6095C37.1005 13.8378 37.3097 14.2088 37.4239 14.4276C37.5475 14.6558 37.6712 14.8366 37.7092 14.8366C37.7378 14.8366 37.7949 14.9127 37.8329 14.9983C37.8614 15.0934 37.9661 15.2836 38.0517 15.4263C38.4892 16.0922 39.3834 17.5856 39.5546 17.928C39.6592 18.1373 39.7734 18.318 39.8209 18.3371C39.859 18.3561 39.8875 18.4132 39.8875 18.4512C39.8875 18.6129 40.5724 19.9731 40.6485 19.9731C40.6961 19.9731 40.7626 19.7734 40.7912 19.5166C40.8197 19.2692 40.8958 18.8888 40.9434 18.6795C41.0956 18.0897 40.8578 16.1683 40.639 16.1683C40.6009 16.1683 40.5439 16.0351 40.5058 15.8829C40.4678 15.7212 40.4107 15.5976 40.3631 15.5976C40.3251 15.5976 40.2585 15.4929 40.23 15.3597C40.1919 15.2266 40.1253 15.1219 40.0778 15.1219C40.0207 15.1219 39.9827 15.0839 39.9827 15.0268C39.9827 14.9032 39.1646 14.0756 39.0409 14.0756C38.9934 14.0756 38.9078 14.0185 38.8697 13.9424C38.7746 13.7807 37.5761 13.3051 37.1005 13.2385L36.7295 13.191L36.9673 13.6095Z" fill="white"/>
<path d="M35.6356 14.8368C35.6736 14.9699 35.7022 15.7214 35.7022 16.5204V17.9663L36.4156 18.3943C36.8151 18.6321 37.1766 18.8319 37.2241 18.8319C37.2622 18.8319 37.3192 18.8699 37.3383 18.9175C37.3858 19.0411 38.4131 19.4977 38.4417 19.4026C38.4702 19.317 38.1373 18.5655 37.7758 17.9282C37.2907 17.0721 36.9958 16.5965 36.9388 16.5489C36.9102 16.5204 36.6534 16.1304 36.3775 15.6738C35.8163 14.7511 35.531 14.4277 35.6356 14.8368Z" fill="white"/>
<path d="M23.8408 13.1912L23.5269 13.2293L23.5364 19.669C23.5364 27.2407 23.6505 33.0431 23.7932 33.3855C23.8503 33.5187 23.9644 33.8516 24.05 34.137C24.2212 34.7077 24.7729 35.8872 24.8776 35.9348C24.9251 35.9538 24.9537 36.0109 24.9537 36.068C24.9537 36.2867 26.8086 38.3318 27.0083 38.3318C27.0368 38.3318 27.2271 38.4555 27.4173 38.6077C28.1688 39.1975 29.7098 39.8823 30.5563 40.006C30.7941 40.044 31.0415 40.1106 31.108 40.1582C31.2507 40.2723 33.819 40.1962 34.3993 40.0631C34.9224 39.9394 35.5217 39.7396 35.9402 39.5589C36.3397 39.3782 37.1673 38.874 37.2053 38.7884C37.2244 38.7504 37.291 38.7123 37.3575 38.7123C37.4812 38.7123 38.5561 37.704 39.0792 37.0953C39.4597 36.6482 40.1731 35.5638 40.1731 35.4211C40.1731 35.3545 40.2112 35.288 40.2492 35.2689C40.449 35.1928 40.9246 33.4616 41.0768 32.2916C41.21 31.2453 41.229 30.5224 41.1719 27.5355C41.1339 25.5951 41.0768 23.6736 41.0483 23.2646L40.9817 22.5036L40.1731 22.0946C39.7261 21.8663 39.3075 21.6856 39.2505 21.6856C39.1839 21.6856 39.1268 21.6475 39.1268 21.6C39.1268 21.5524 39.0031 21.4858 38.8414 21.4478C38.6892 21.4097 38.5561 21.3431 38.5561 21.2956C38.5561 21.248 38.4895 21.21 38.4134 21.21C38.2897 21.21 37.8617 20.9912 36.2351 20.1256C35.9783 19.9924 35.75 19.8783 35.731 19.8783C35.7119 19.8783 35.7024 22.6082 35.7024 25.9375C35.7024 29.2763 35.6644 32.168 35.6168 32.3582C35.3505 33.4997 34.1615 34.7172 33.3244 34.7172C33.1912 34.7172 33.0295 34.7648 32.9724 34.8219C32.8488 34.9455 32.0212 34.8884 31.4219 34.7077C30.7751 34.508 30.1663 34.0704 29.7288 33.4806C29.0249 32.5199 29.0439 32.7292 29.0439 24.3585C29.0439 16.8629 29.0249 16.5014 28.7015 15.7214C28.6254 15.5597 28.5683 15.379 28.5683 15.3219C28.5683 15.2649 28.5303 15.2173 28.4827 15.2173C28.4351 15.2173 28.3685 15.1317 28.3305 15.0271C28.2639 14.8083 27.4744 13.9807 27.3317 13.9807C27.2842 13.9807 27.2366 13.9427 27.2366 13.9046C27.2366 13.781 26.4851 13.4385 25.8573 13.2673C25.3342 13.1341 24.5542 13.1056 23.8408 13.1912Z" fill="white"/>
<path d="M14.7374 28.0489C14.7089 28.0965 14.5187 28.163 14.3284 28.2011C14.1287 28.2391 13.9289 28.2962 13.8718 28.3438C13.8243 28.3818 13.6055 28.4484 13.3962 28.4865C13.1869 28.5245 12.9777 28.5816 12.9206 28.6291C12.873 28.6672 12.6543 28.7243 12.445 28.7528C12.2357 28.7908 11.8743 28.8574 11.6365 28.905C11.3987 28.9621 11.0182 29.0001 10.7709 29.0096C10.5331 29.0096 10.3048 29.0477 10.2477 29.0952C10.2001 29.1523 9.97184 29.1999 9.74355 29.2189C9.34404 29.2474 9.32501 29.2569 9.47721 29.4091C9.56282 29.4947 9.63891 29.5994 9.63891 29.6279C9.63891 29.666 9.77208 29.8562 9.92428 30.056C10.086 30.2557 10.2096 30.465 10.2096 30.5221C10.2096 30.5791 10.2382 30.6267 10.2857 30.6267C10.3238 30.6267 10.457 30.7979 10.5901 31.0072C10.7138 31.2164 10.8565 31.3877 10.8945 31.3877C10.9326 31.3877 10.9706 31.4352 10.9706 31.4828C10.9706 31.5399 11.5699 32.396 12.3023 33.3852C13.0348 34.3745 13.634 35.2306 13.634 35.2781C13.634 35.3257 13.6721 35.3828 13.7196 35.4018C13.7957 35.4208 14.5757 36.4576 15.0608 37.1901C15.1369 37.3042 15.2511 37.4564 15.3082 37.5135C15.3652 37.5706 15.4889 37.7418 15.584 37.894C15.955 38.4552 16.8111 39.3779 16.9633 39.3779C17.0204 39.3779 17.0584 39.4159 17.0584 39.4635C17.0584 39.5111 17.1535 39.5872 17.2772 39.6252C17.3913 39.6632 17.5055 39.7203 17.534 39.7489C17.6101 39.8535 18.4852 40.1674 18.9608 40.2625C19.6172 40.4052 21.824 40.4528 21.9381 40.3386C21.9952 40.2815 22.1189 40.234 22.2045 40.234C22.2996 40.234 22.4898 40.0818 22.642 39.8915C23.0035 39.4064 22.994 38.6454 22.623 38.0367C22.2235 37.3994 21.4911 36.4291 21.415 36.4291C21.3674 36.4291 21.3389 36.3625 21.3389 36.2864C21.3389 36.2103 21.3008 36.1437 21.2533 36.1437C21.2057 36.1437 21.1391 36.0677 21.1106 35.9725C21.082 35.8869 20.9584 35.7062 20.8347 35.573C20.7206 35.4398 20.4733 35.1164 20.2925 34.8596C20.1213 34.5933 19.9501 34.365 19.9216 34.3364C19.893 34.3079 19.7123 34.0701 19.5316 33.8133C19.3508 33.5469 19.1701 33.2901 19.1225 33.2425C19.0845 33.1855 18.8372 32.843 18.5803 32.4816C18.3235 32.1106 18.0762 31.7682 18.0382 31.7206C17.9906 31.6635 17.8099 31.4067 17.6291 31.1499C17.4484 30.8835 17.2772 30.6552 17.2486 30.6267C17.0584 30.4555 16.5828 29.7706 16.5828 29.685C16.5828 29.6279 16.5447 29.5804 16.5067 29.5804C16.4116 29.5804 15.8218 28.7528 15.8218 28.6291C15.8218 28.5721 15.7838 28.534 15.7362 28.534C15.6791 28.534 15.565 28.4008 15.4699 28.2487C15.3557 28.0394 15.2321 27.9633 15.0418 27.9633C14.8991 27.9633 14.766 28.0013 14.7374 28.0489Z" fill="white"/>
<path d="M1.07812 33.7372C1.07812 37.133 1.10666 39.9962 1.1352 40.1103C1.19227 40.3196 1.24934 40.3291 1.99129 40.3291C2.41934 40.3291 2.80934 40.2815 2.83787 40.234C2.86641 40.1769 2.99958 40.1389 3.13275 40.1389C3.4086 40.1389 4.40738 39.6633 4.88299 39.3018C5.33957 38.9594 5.97689 38.2745 6.12908 37.9701C6.19567 37.8274 6.3003 37.6467 6.35737 37.5706C6.42396 37.4945 6.5381 37.1996 6.62371 36.9142C6.7664 36.4767 6.78542 35.8964 6.78542 32.7194V29.0382L5.95786 28.9335C5.01616 28.8194 4.16958 28.6577 3.88421 28.5435C3.77958 28.5055 3.43714 28.3913 3.12324 28.2962C2.80934 28.2011 2.23861 28.0013 1.85812 27.8491C1.47764 27.7065 1.14471 27.5828 1.12569 27.5828C1.09715 27.5828 1.07812 30.3508 1.07812 33.7372Z" fill="white"/>
<path d="M0.98291 24.6627V25.7566L1.77242 26.1371C2.20047 26.3559 2.85681 26.6127 3.21827 26.7268C3.58924 26.841 3.96022 26.9741 4.04583 27.0217C4.14095 27.0693 4.29314 27.1073 4.38826 27.1073C4.48339 27.1073 4.8068 27.1739 5.11119 27.25C5.42509 27.3356 5.69143 27.3737 5.71997 27.3451C5.76753 27.2976 5.47265 26.6698 5.31094 26.4795C5.26338 26.4224 5.14924 26.2798 5.07314 26.1561C4.85436 25.8422 4.37875 25.3666 3.86509 24.9576C3.61778 24.7483 3.38949 24.5676 3.36095 24.539C3.29436 24.4725 2.9329 24.2727 2.47632 24.0539C2.25754 23.9493 2.00071 23.8161 1.9151 23.7686C1.82949 23.721 1.58218 23.6544 1.3634 23.6259L0.98291 23.5593V24.6627Z" fill="white"/>
<path d="M4.50252 7.10335C4.11253 7.17945 3.65594 7.30311 3.48472 7.3792C3.32302 7.4553 3.14229 7.51237 3.08521 7.51237C3.02814 7.51237 2.98058 7.55042 2.98058 7.59798C2.98058 7.64554 2.89497 7.72164 2.79034 7.75018C2.42887 7.86432 1.64888 8.74895 1.33498 9.39578L1.03059 10.0331L1.00205 15.8355C0.973513 22.0089 0.973513 22.066 1.42058 22.066C1.71546 22.066 2.42887 22.3133 3.10424 22.6462C4.03643 23.1028 4.97813 23.7877 5.78667 24.5867C6.68081 25.4713 6.833 25.6616 7.57495 26.6794C8.12666 27.4308 8.13617 27.4403 8.62129 27.4974C9.30616 27.564 12.0552 27.4118 12.0932 27.2977C12.1123 27.2406 12.2169 27.2025 12.3215 27.2025C12.5213 27.2025 13.2822 26.9743 13.7959 26.7555C13.9576 26.6889 14.1574 26.6318 14.243 26.6318C14.3286 26.6318 14.3952 26.5938 14.3952 26.5462C14.3952 26.4986 14.5283 26.4321 14.6805 26.394C14.8422 26.356 14.9659 26.2894 14.9659 26.2418C14.9659 26.1943 15.0135 26.1562 15.0705 26.1562C15.2037 26.1562 16.4498 25.3191 16.7732 25.0147C16.9159 24.8816 17.1347 24.6913 17.2583 24.5772C17.6864 24.2062 18.4188 23.3501 18.8183 22.7318C19.4176 21.8187 20.1025 20.4013 20.1025 20.0874C20.1025 19.9923 20.15 19.8687 20.1976 19.8211C20.2547 19.764 20.3212 19.4406 20.3593 19.0887C20.3878 18.7367 20.4544 18.4514 20.4925 18.4514C20.6161 18.4514 20.5971 16.0828 20.4734 15.4836C20.3212 14.7036 20.093 13.8665 19.9598 13.5526C19.5698 12.6585 19.1132 11.7833 18.9134 11.5455C18.8659 11.4885 18.7327 11.3172 18.6281 11.165C17.5437 9.65261 15.6983 8.2353 14.0622 7.65506C13.8054 7.56945 13.501 7.4553 13.3964 7.41725C13.1396 7.30311 12.2169 7.13189 11.3513 7.03677C10.1432 6.89408 5.32057 6.95116 4.50252 7.10335ZM11.1991 12.5538C12.5688 12.7536 13.7103 13.6097 14.4522 14.9889C14.8137 15.6453 14.8993 16.0828 14.8993 17.1197C14.8993 18.6701 14.5283 19.6309 13.5296 20.6296C13.1776 20.9816 12.8447 21.2574 12.683 21.3335C12.6069 21.3716 12.3976 21.4857 12.2169 21.5999C12.0457 21.7045 11.7223 21.8567 11.5035 21.9328C11.0088 22.1135 8.27885 22.2848 7.45129 22.1801L6.833 22.1135L6.80447 17.405C6.79495 14.8177 6.80447 12.6394 6.833 12.5728C6.89008 12.4302 10.2003 12.4111 11.1991 12.5538Z" fill="white"/>
</svg>
