<svg width="120" height="48" viewBox="0 0 120 48" fill="none" xmlns="http://www.w3.org/2000/svg">
<path d="M100.876 7.27555C100.784 7.33306 100.589 7.39057 100.451 7.39057C99.8409 7.39057 97.7705 8.80537 97.7705 9.20795C97.7705 9.27697 97.736 9.34598 97.6899 9.36899C97.5059 9.438 97.1838 10.2317 97.0918 10.8068C96.9423 11.7615 97.0688 44.9574 97.2183 45.5786C97.5749 46.9703 98.5526 47.833 99.9329 47.9711C101.382 48.0976 102.613 47.3729 103.303 45.9581L103.579 45.406V40.4945C103.579 37.7914 103.614 35.56 103.648 35.514C103.694 35.4794 103.901 35.6635 104.108 35.9395C104.315 36.2156 104.522 36.4571 104.557 36.4917C104.591 36.5262 104.948 36.9633 105.362 37.4694C105.765 37.9755 106.133 38.4126 106.167 38.4471C106.202 38.4816 106.489 38.8381 106.8 39.2522C107.11 39.6663 107.398 40.0229 107.432 40.0574C107.467 40.0919 107.755 40.4485 108.065 40.8626C108.376 41.2767 108.663 41.6332 108.698 41.6677C108.732 41.7022 109.02 42.0588 109.33 42.4729C109.652 42.887 109.929 43.2436 109.963 43.2781C109.998 43.3126 110.285 43.6692 110.596 44.0717C110.918 44.4858 111.297 44.9574 111.458 45.1185C111.619 45.291 111.907 45.6131 112.091 45.8316C112.517 46.3262 113.655 47.0854 114.276 47.3039C115.542 47.7295 117.635 47.8905 118.521 47.626C119.671 47.2809 120.085 45.9236 119.337 44.9459C119.176 44.7274 119.05 44.5088 119.05 44.4513C119.05 44.3823 119.015 44.3133 118.958 44.2903C118.912 44.2673 118.693 44.0257 118.475 43.7382C118.256 43.4621 117.992 43.14 117.9 43.0365C117.624 42.749 117.302 42.3464 116.692 41.5527C116.381 41.1386 116.094 40.7821 116.059 40.7475C116.025 40.713 115.737 40.3565 115.427 39.9424C115.116 39.5283 114.829 39.1717 114.794 39.1372C114.76 39.1027 114.598 38.8957 114.449 38.6771C114.299 38.4586 114.138 38.2515 114.104 38.217C114.069 38.1825 113.793 37.8259 113.471 37.4118C113.161 36.9978 112.873 36.6412 112.839 36.6067C112.804 36.5722 112.528 36.2156 112.206 35.8015C111.895 35.3874 111.596 35.0309 111.55 35.0193C111.493 34.9963 111.458 34.9273 111.458 34.8698C111.458 34.8008 111.309 34.5938 111.113 34.3867C110.929 34.1797 110.768 33.9726 110.768 33.9151C110.768 33.8576 110.653 33.7081 110.515 33.57C110.366 33.432 110.021 33.0179 109.744 32.6384C109.457 32.2588 109.169 31.8907 109.1 31.8332C109.031 31.7642 108.721 31.3846 108.41 30.9705C108.1 30.5564 107.789 30.1883 107.732 30.1423C107.628 30.0733 107.789 29.7973 108.123 29.4752C108.157 29.4407 108.318 29.2336 108.479 29.0151C108.652 28.7965 108.882 28.4975 108.997 28.3595C109.123 28.2329 109.296 28.0029 109.388 27.8649C109.48 27.7268 109.664 27.4968 109.79 27.3587C110.032 27.0827 110.159 26.9217 111.47 25.2768C111.918 24.7017 112.367 24.1381 112.482 24.0115C112.586 23.885 112.931 23.4479 113.241 23.0338C113.563 22.6198 113.851 22.2632 113.885 22.2287C113.931 22.1942 114.161 21.9066 114.391 21.596C114.633 21.274 114.875 20.9979 114.932 20.9864C114.978 20.9634 115.024 20.8714 115.024 20.7794C115.024 20.6874 115.07 20.6183 115.116 20.6183C115.162 20.6183 115.404 20.3538 115.645 20.0432C115.887 19.7212 116.266 19.2726 116.473 19.031C116.933 18.5134 117.624 17.6737 118.015 17.1676C118.176 16.9606 118.44 16.627 118.624 16.42C118.797 16.2129 118.935 15.9829 118.935 15.9139C118.935 15.8448 118.981 15.7873 119.05 15.7873C119.107 15.7873 119.188 15.6608 119.234 15.4998C119.268 15.3387 119.349 15.2122 119.406 15.2122C119.579 15.2122 119.533 13.8779 119.349 13.7284C119.027 13.4638 114.667 13.7629 114.449 14.062C114.414 14.108 114.265 14.177 114.104 14.2115C113.414 14.361 112.091 15.0282 111.711 15.4077C111.631 15.4883 111.527 15.5573 111.481 15.5573C111.343 15.5573 110.4 16.5005 109.79 17.2251C109.48 17.6047 109.192 17.9383 109.158 17.9728C109.123 18.0073 108.893 18.2833 108.64 18.6054C108.387 18.916 108.146 19.192 108.1 19.215C108.042 19.2381 108.008 19.3301 108.008 19.4106C108.008 19.4911 107.962 19.5831 107.904 19.6061C107.858 19.6176 107.478 20.0547 107.076 20.5608C106.673 21.0669 106.317 21.504 106.282 21.5385C106.248 21.573 106.018 21.8491 105.765 22.1712C105.512 22.4817 105.19 22.8613 105.051 22.9993C104.902 23.1374 104.787 23.2869 104.787 23.3214C104.787 23.3559 104.637 23.5515 104.442 23.7585C104.258 23.9655 104.097 24.1726 104.097 24.2186C104.097 24.3566 103.786 24.6442 103.648 24.6442C103.556 24.6442 103.51 21.9986 103.499 15.9254L103.464 7.21804L102.256 7.18353C101.589 7.17203 100.968 7.20654 100.876 7.27555Z" fill="#FBFFBD"/>
<path d="M86.5326 40.8857C86.3831 41.1387 86.3486 43.7613 86.4981 44.4284C86.5671 44.7735 86.6591 45.2106 86.6936 45.3831C86.7972 45.9122 87.4183 46.9819 87.8554 47.4075C88.2695 47.7871 88.281 47.7986 89.1437 47.7296C89.7878 47.6951 90.0754 47.7181 90.2364 47.8331C90.547 48.0632 92.5139 48.0517 92.7094 47.8216C92.8129 47.6951 92.8244 47.396 92.7784 46.7634C92.6519 45.2451 92.3643 44.2214 91.9387 43.7613C91.8582 43.6807 91.7892 43.5657 91.7892 43.5082C91.7892 43.3127 90.4549 42.0474 89.8913 41.7138C88.534 40.9087 86.7972 40.4831 86.5326 40.8857Z" fill="#FBFFBD"/>
<path d="M92.0077 17.0296C91.3175 17.8118 91.1565 18.0188 90.6389 18.8355C89.8682 20.0317 89.8682 20.0432 89.4886 20.8484C89.2931 21.2625 89.063 21.7456 88.971 21.9181C88.879 22.1022 88.7985 22.2977 88.7985 22.3667C88.7985 22.4242 88.7295 22.6428 88.649 22.8383C88.3614 23.494 88.1083 24.3566 88.1083 24.6212C88.1083 24.7707 88.0623 24.9778 87.9933 25.0928C87.8898 25.2883 87.8093 25.6679 87.5332 27.2897C87.3377 28.3595 87.3147 28.4285 86.9581 28.6125L86.613 28.7966V32.6154C86.613 34.7088 86.6475 37.0093 86.6821 37.6994L86.7626 38.9647L87.6368 39.1717C88.8675 39.4708 89.7187 39.7699 90.8459 40.299C91.375 40.5405 91.8466 40.7476 91.8926 40.7476C91.9271 40.7476 91.9502 40.2069 91.9271 39.5513L91.8811 38.3551L92.2032 38.309L92.5368 38.2745L92.5713 27.4278C92.5828 21.1705 92.5483 16.5925 92.4908 16.5925C92.4333 16.5925 92.2147 16.788 92.0077 17.0296Z" fill="#FBFFBD"/>
<path d="M90.6849 15.6609C90.4894 15.7069 90.2708 15.7874 90.2018 15.8219C90.0293 15.9369 88.2349 16.2475 87.7403 16.2475C87.5103 16.2475 87.2802 16.19 87.2457 16.1325C87.2112 16.0635 87.0272 16.0175 86.8316 16.0175H86.498V20.0088C86.498 22.2058 86.5441 23.9541 86.5901 23.8851C86.6476 23.8276 86.8891 23.172 87.1307 22.4243C87.3837 21.6882 87.6138 21.0785 87.6598 21.0785C87.7058 21.0785 87.7748 20.9405 87.8208 20.768C87.8553 20.5954 87.9358 20.4229 87.9704 20.3884C88.0164 20.3539 88.1544 20.1238 88.2809 19.8708C88.557 19.3187 89.3506 18.0764 89.5347 17.9154C89.6037 17.8463 89.8107 17.6048 89.9833 17.3632C90.1673 17.1217 90.3974 16.8456 90.5124 16.7306C90.7539 16.4891 91.3291 15.7069 91.3291 15.6264C91.3291 15.5459 91.1565 15.5574 90.6849 15.6609Z" fill="#FBFFBD"/>
<path d="M85.3019 0.443286C85.2674 0.742348 85.2329 1.19094 85.2329 1.4555C85.2329 2.14564 84.6923 4.86021 84.5082 5.17077C84.3932 5.34331 84.0826 7.62079 84.0826 8.21891C84.0826 9.19662 84.4852 10.5424 85.0488 11.4741C85.2444 11.7847 85.4399 12.0607 85.4859 12.0837C85.5319 12.1067 85.578 12.1872 85.578 12.2563C85.578 12.3828 86.3601 13.257 86.7742 13.5905C86.8892 13.6711 87.1883 13.7631 87.4528 13.7861C87.7174 13.8091 87.8554 13.7976 87.7634 13.7631C87.4298 13.602 86.8202 12.9234 86.8662 12.7394C86.8892 12.6013 87.1193 12.7624 87.7289 13.3145C88.4421 13.9701 88.6031 14.0621 88.9942 14.0621C89.7073 14.0621 89.7878 13.9471 89.6153 13.234C89.5348 12.9004 89.4083 12.4173 89.3277 12.1642C89.2472 11.9112 89.0862 11.3936 88.9712 11.014C88.8561 10.6344 88.7296 10.2203 88.6721 10.0938C88.6261 9.96728 88.4996 9.55319 88.396 9.17361C88.2925 8.79403 88.1315 8.29943 88.051 8.08088C87.8209 7.45975 87.5334 6.45904 87.5334 6.28651C87.5334 6.19449 87.4874 6.03345 87.4298 5.91843C87.3723 5.81491 87.2343 5.49284 87.1308 5.20528C87.0158 4.91772 86.8547 4.52664 86.7742 4.3196C86.6017 3.92851 86.5557 2.9048 86.7167 2.9048C86.8317 2.9048 87.5334 4.30809 87.9359 5.37782C88.1085 5.81491 88.3155 6.34402 88.4075 6.55106C88.4996 6.7466 88.5686 6.98815 88.5686 7.08017C88.5686 7.1837 88.6261 7.29872 88.6836 7.33323C88.7526 7.36773 88.7986 7.48276 88.7986 7.58628C88.7986 7.6783 88.8676 7.91985 88.9597 8.11539C89.1092 8.46046 89.2702 8.98957 89.9604 11.3016C90.3054 12.4863 90.478 12.7969 90.7885 12.7969C91.0991 12.7969 91.6512 12.0147 92.0883 10.9565C92.3759 10.2663 92.3989 10.0823 92.3989 8.59849C92.3989 7.31022 92.3644 6.91914 92.2148 6.64308C92.1113 6.44754 92.0193 6.2405 92.0193 6.15998C92.0193 5.84942 91.3752 4.8142 90.8921 4.36561C90.616 4.10105 90.2939 3.79049 90.1904 3.68696C90.0869 3.58344 89.4428 3.21537 88.7641 2.85879C88.0855 2.50222 87.2458 2.00761 86.9122 1.75456C86.3486 1.32897 85.693 0.535305 85.693 0.270749C85.693 0.213238 85.624 0.109715 85.5319 0.0407009C85.4054 -0.0628204 85.3709 0.0176964 85.3019 0.443286ZM88.7066 3.79049C88.8216 3.89401 88.9137 4.06654 88.9137 4.18157C88.9137 4.29659 88.9712 4.42312 89.0287 4.45763C89.0977 4.49213 89.1437 4.44612 89.1437 4.3426C89.1437 4.03204 89.5118 4.19307 89.7993 4.61866C90.0064 4.92922 90.0639 5.17077 90.0639 5.74589C90.0639 6.45904 89.8568 7.39074 89.6958 7.39074C89.4888 7.39074 88.9137 5.84942 88.9137 5.2858C88.9137 5.11326 88.7641 4.67617 88.5686 4.3196C88.3845 3.96302 88.2235 3.66396 88.2235 3.64095C88.2235 3.52593 88.5111 3.61795 88.7066 3.79049ZM86.0611 4.30809C86.3141 4.79119 86.6592 5.88392 86.5902 5.95294C86.5096 6.03345 86.1301 5.67688 85.831 5.23979C85.578 4.88321 85.5089 4.46913 85.647 4.12405C85.7505 3.848 85.854 3.89401 86.0611 4.30809ZM91.2601 5.92993C91.3752 6.19449 91.5362 6.53956 91.6052 6.68909C91.6742 6.83862 91.7317 7.48276 91.7317 8.12689C91.7317 9.09309 91.6857 9.38065 91.4787 9.82925C91.1451 10.5194 90.8461 10.7034 90.455 10.4389C90.1099 10.2203 90.1099 10.1398 90.4665 9.5762C90.6275 9.32314 90.754 9.02408 90.754 8.89755C90.754 8.77103 90.8115 8.633 90.8691 8.59849C90.9381 8.55248 91.0876 8.32243 91.2141 8.06938C91.4097 7.6898 91.4212 7.62079 91.2716 7.62079C91.1796 7.62079 91.0991 7.6783 91.0991 7.74731C91.0991 7.81633 91.0416 7.85083 90.9611 7.82783C90.8691 7.79332 90.8115 7.36773 90.777 6.55106C90.7425 5.56186 90.7655 5.33181 90.8921 5.37782C90.9726 5.41232 91.1336 5.65388 91.2601 5.92993ZM85.693 6.47055C85.9115 6.78111 86.1301 7.04567 86.1876 7.04567C86.2336 7.04567 86.2681 7.10318 86.2681 7.1837C86.2681 7.25271 86.3486 7.40224 86.4406 7.50576C86.5442 7.62079 86.6477 7.82783 86.6707 7.96586C86.7052 8.11539 86.8432 8.36844 86.9928 8.52948C87.3723 8.93206 87.6944 9.44967 87.6139 9.53019C87.4643 9.67972 85.923 8.656 85.923 8.40295C85.923 8.27642 85.624 7.96586 85.5089 7.96586C85.4629 7.96586 85.3249 7.88534 85.2099 7.77032C85.0488 7.62079 85.0028 7.41374 85.0028 6.7351C85.0028 5.71139 85.1294 5.66538 85.693 6.47055ZM85.5549 9.28864C85.854 9.50718 86.2336 9.79474 86.4061 9.93277C87.0388 10.4159 88.7986 12.2217 88.7986 12.3943C88.7986 12.6128 88.6836 12.6128 88.396 12.4058C88.2695 12.3253 87.7404 12.0377 87.2113 11.7617C86.1071 11.198 85.7045 10.8645 85.3134 10.1513C85.0258 9.62221 84.8073 8.88605 84.9453 8.88605C84.9798 8.88605 85.2559 9.07009 85.5549 9.28864ZM88.7986 13.3375C88.7986 13.418 88.7641 13.487 88.7181 13.487C88.5686 13.487 88.005 12.7509 88.074 12.6473C88.1545 12.5208 88.7986 13.1304 88.7986 13.3375Z" fill="#088395"/>
<path d="M71.7521 33.6968C71.66 34.0534 71.8671 39.9771 71.9821 40.5752C72.1776 41.5184 72.9598 43.1863 73.6154 44.0144C74.2136 44.7966 75.2833 45.7858 75.9849 46.2229C76.4335 46.499 76.8591 46.729 76.9281 46.729C77.0087 46.729 77.0662 46.775 77.0662 46.844C77.0662 46.9015 77.1237 46.9591 77.1927 46.9591C77.2617 46.9591 77.4803 47.0281 77.6758 47.1086C78.2509 47.3616 79.2516 47.6377 79.8843 47.7182C80.2063 47.7642 80.5859 47.8217 80.7469 47.8447C80.908 47.8792 82.0007 47.9253 83.1969 47.9598C85.3019 48.0173 85.3479 48.0058 85.3479 47.7872C85.3479 47.6492 85.3019 47.5112 85.2329 47.4767C85.1754 47.4422 85.1179 47.2811 85.1179 47.1316C85.1179 46.9821 85.0718 46.8325 85.0143 46.7865C84.9568 46.752 84.8648 46.4414 84.8303 46.0964C84.7843 45.7513 84.7038 45.4637 84.6578 45.4637C84.6002 45.4637 84.5312 45.0267 84.4852 44.486L84.4047 43.5198L82.5413 43.4738C80.7929 43.4278 79.8613 43.3128 79.0791 43.0252C77.8368 42.5766 76.3185 41.5644 75.7434 40.7823C75.5594 40.5407 75.3753 40.3222 75.3408 40.2877C75.1798 40.1496 74.5586 39.1489 74.2941 38.5623C74.1216 38.2172 73.8225 37.4121 73.6154 36.7794C73.4199 36.1468 73.2129 35.5487 73.1554 35.4567C73.1093 35.3531 73.0288 35.1116 72.9828 34.9045C72.9483 34.6975 72.8563 34.5365 72.7988 34.5365C72.7413 34.5365 72.6953 34.4674 72.6953 34.3869C72.6953 34.2374 72.0051 33.5012 71.8671 33.5012C71.8326 33.5012 71.7751 33.5933 71.7521 33.6968Z" fill="#FBFFBD"/>
<path d="M66.6335 19.1461C66.668 19.4222 66.806 19.8478 66.9325 20.1123C67.1511 20.5609 67.8182 21.3086 67.9908 21.3086C68.0368 21.3086 68.1518 21.3776 68.2323 21.4581C68.4739 21.6882 69.5666 21.9987 70.1532 21.9987C70.4408 21.9987 70.8894 22.0792 71.1424 22.1598L71.6025 22.3208L71.6715 26.2776C71.7635 31.7068 71.752 31.3157 71.9476 31.3157C72.0511 31.3157 72.4997 31.6953 72.9713 32.1439C73.765 32.9375 74.3286 33.8577 74.5816 34.7664C74.6276 34.9274 74.7082 35.1575 74.7657 35.284C74.8577 35.5026 74.9497 35.8246 75.2373 37.0094C75.3063 37.2624 75.5248 37.826 75.7434 38.2746C76.307 39.4364 76.9396 40.184 77.9173 40.8052C79.4471 41.7714 80.8389 42.0704 83.1854 41.9324C84.4622 41.8519 84.4047 41.9094 84.5427 40.6901C84.5887 40.2415 84.6692 39.7699 84.7152 39.6204L84.7958 39.3674H82.4838C79.8727 39.3674 79.6082 39.2983 78.8605 38.4357C78.1474 37.596 78.1014 37.1934 78.1014 32.2244V27.7959L77.7908 27.1633C77.6183 26.8297 77.4457 26.5192 77.4112 26.4847C77.3652 26.4502 77.2847 26.3466 77.2272 26.2431C76.8246 25.5185 75.1683 23.8276 74.1905 23.149C73.972 22.9879 73.765 22.8269 73.7305 22.7924C73.5809 22.6199 72.0511 21.6537 71.9246 21.6537C71.8441 21.6537 71.775 21.6076 71.775 21.5386C71.775 21.4811 71.6485 21.4006 71.4875 21.3546C71.3264 21.3201 71.1999 21.2396 71.1999 21.1821C71.1999 21.1245 71.1424 21.0785 71.0849 21.0785C71.0159 21.0785 70.7513 20.9405 70.4753 20.768C69.9462 20.4229 69.8771 20.3769 68.8419 19.8133C68.4623 19.6062 67.9447 19.3187 67.6917 19.1691C67.4386 19.0311 67.0821 18.8471 66.898 18.7781L66.5645 18.6515L66.6335 19.1461Z" fill="#FBFFBD"/>
<path d="M71.5909 7.40213C71.5449 7.48264 71.5334 9.21951 71.5564 11.2899L71.6024 15.0397L70.3256 15.1087C68.5658 15.2123 67.5881 15.6839 67.2775 16.581C67.082 17.1332 67.22 17.2597 69.1869 18.2374C69.5665 18.4329 69.9 18.617 69.9346 18.6515C69.9691 18.686 70.1991 18.824 70.4522 18.9505C70.9928 19.2151 74.0639 21.067 74.271 21.2395C74.5815 21.5156 74.7196 21.6191 74.8461 21.6651C75.0531 21.7456 76.0193 22.5853 77.043 23.563C77.7217 24.2186 78.0207 24.4487 78.0668 24.3337C78.1013 24.2416 78.1128 23.747 78.0783 23.2294C78.0437 22.7118 78.0437 22.2172 78.0668 22.1367C78.1013 22.0332 78.5153 21.9987 79.5966 21.9987C80.8158 21.9987 81.1609 21.9642 81.6095 21.7686C82.1731 21.5271 83.3924 20.4574 83.3924 20.2043C83.3924 20.1123 83.4384 20.0433 83.4844 20.0433C83.5764 20.0433 83.7835 19.3991 83.933 18.6285C84.0135 18.2374 83.7835 17.3632 83.4729 16.8226C83.1968 16.3625 82.3687 15.5573 82.1616 15.5573C82.0811 15.5573 82.0121 15.5113 82.0121 15.4653C82.0121 15.2583 80.7353 15.0512 79.4816 15.0397L78.1588 15.0282V13.6479C78.1473 11.1174 77.7332 9.99017 76.3414 8.64439C76.0998 8.41434 75.7088 8.12678 75.4787 8.02326C75.2372 7.90823 74.9726 7.78171 74.8691 7.7357C74.0639 7.34462 71.7749 7.11457 71.5909 7.40213Z" fill="#FBFFBD"/>
<path d="M58.1447 15.3273C58.0182 15.3848 57.7766 15.4309 57.6156 15.4309C56.8104 15.4539 55.1541 16.167 54.1533 16.9262C51.8874 18.6285 50.7141 20.653 50.5531 23.149C50.4726 24.4948 50.6911 26.2546 51.0592 27.1173C51.3583 27.8305 51.7493 28.5781 52.0484 28.9922C52.3935 29.4868 54.0728 31.0741 54.4294 31.2467C54.5099 31.2812 54.74 31.4192 54.924 31.5457C55.1195 31.6608 55.4991 31.8793 55.7867 32.0288C56.0742 32.1784 56.3273 32.3279 56.3618 32.3739C56.3963 32.4084 56.5689 32.4889 56.7414 32.5234C56.9139 32.5694 57.052 32.65 57.052 32.696C57.052 32.742 57.167 32.811 57.3165 32.857C57.7766 32.972 59.1684 33.8692 59.6055 34.3408C60.1116 34.8814 60.5027 35.5831 60.5027 35.9742C60.5027 36.1237 60.5602 36.2847 60.6177 36.3192C60.6867 36.3537 60.7327 36.6643 60.7327 37.0094C60.7327 37.3544 60.6867 37.665 60.6177 37.6995C60.5602 37.734 60.5027 37.8836 60.5027 38.0331C60.5027 38.4817 59.9276 39.4594 59.3754 39.954C58.8118 40.4486 58.0182 40.8627 57.6386 40.8627C57.512 40.8627 57.374 40.9087 57.3395 40.9777C57.2245 41.1732 55.1195 41.1042 54.2684 40.8742C53.8428 40.7707 53.4517 40.6441 53.4172 40.5981C53.3712 40.5521 53.2217 40.5176 53.0951 40.5176C52.9571 40.5176 52.704 40.4371 52.5315 40.3451C52.359 40.253 52.0369 40.1495 51.8184 40.1035C51.4963 40.046 51.4158 40.069 51.4158 40.2185C51.4158 40.3221 51.3698 40.4026 51.3008 40.4026C51.2432 40.4026 51.1857 40.5061 51.1857 40.6211C51.1857 40.7476 51.1167 40.9202 51.0477 41.0007C50.9672 41.0812 50.7141 41.5068 50.4956 41.9324C50.277 42.358 50.0585 42.7031 50.0125 42.7031C49.9665 42.7031 49.9205 42.7721 49.9205 42.8641C49.9205 42.9561 49.8514 43.1056 49.7709 43.1862C49.6904 43.2667 49.3683 43.6693 49.0578 44.0833C48.7472 44.4974 48.3676 44.946 48.2296 45.0726C47.896 45.3831 47.896 45.5442 48.2296 45.6477C48.3676 45.6937 48.5057 45.7512 48.5402 45.7972C48.5977 45.8662 49.0348 46.0848 49.8284 46.4298C50.0585 46.5334 50.323 46.6139 50.4151 46.6139C50.5186 46.6139 50.6221 46.6599 50.6681 46.7174C50.7026 46.7864 50.9787 46.8669 51.2777 46.9129C51.5768 46.9474 51.8759 47.028 51.9334 47.074C52.0024 47.1315 52.4165 47.2005 52.8536 47.2465C53.3022 47.2925 53.6933 47.3845 53.7278 47.4305C53.8198 47.5801 58.2137 47.5686 58.3632 47.419C58.4207 47.3615 58.5818 47.304 58.7198 47.304C59.0189 47.304 61.0088 46.6024 61.0548 46.4758C61.0778 46.4298 61.1583 46.3838 61.2388 46.3838C61.3884 46.3838 62.6536 45.5557 63.2172 45.0956C63.9189 44.5319 64.9081 43.4162 65.3107 42.7606C65.5292 42.381 65.7593 42.0474 65.7938 42.0129C65.8743 41.9554 66.4609 40.4716 66.7025 39.6894C67.2201 38.0561 67.0705 34.7089 66.4149 33.1906C66.3229 32.995 66.2539 32.7535 66.2539 32.6615C66.2539 32.5579 66.2194 32.4659 66.1734 32.4429C66.1158 32.4199 65.9663 32.1784 65.8283 31.8908C65.5292 31.3042 65.3337 30.9936 65.1381 30.7636C65.0576 30.683 64.9886 30.568 64.9886 30.522C64.9886 30.3265 63.3093 28.7621 62.6076 28.2905C61.4344 27.5314 61.2158 27.4279 59.3524 26.7032C58.2367 26.2776 57.9376 26.1051 57.4545 25.6335C56.9714 25.1504 56.8219 24.8168 56.8219 24.1267C56.8219 23.3905 57.0405 22.9304 57.6386 22.4128C58.1792 21.9527 58.8808 21.7917 60.7787 21.6997C62.021 21.6307 62.4811 21.4811 63.1022 20.9175C63.7924 20.3194 63.8384 20.0778 63.8384 17.5243V15.2123L61.1123 15.2238C59.6055 15.2238 58.2712 15.2698 58.1447 15.3273Z" fill="#088395"/>
<path d="M43.5136 15.5688C43.6746 15.8449 43.9277 16.2935 44.0657 16.558C44.2152 16.8341 44.3648 17.0526 44.4108 17.0526C44.4453 17.0526 44.5143 17.1446 44.5603 17.2482C44.5948 17.3632 44.7213 17.5932 44.8248 17.7658C45.354 18.5709 46.4352 20.3768 46.6422 20.7909C46.7688 21.044 46.9068 21.2625 46.9643 21.2855C47.0103 21.3085 47.0448 21.3775 47.0448 21.4235C47.0448 21.6191 47.873 23.2639 47.965 23.2639C48.0225 23.2639 48.103 23.0224 48.1375 22.7118C48.172 22.4127 48.2641 21.9526 48.3216 21.6996C48.5056 20.9864 48.2181 18.663 47.9535 18.663C47.9075 18.663 47.8385 18.5019 47.7925 18.3179C47.7465 18.1223 47.6774 17.9728 47.6199 17.9728C47.5739 17.9728 47.4934 17.8463 47.4589 17.6852C47.4129 17.5242 47.3324 17.3977 47.2749 17.3977C47.2058 17.3977 47.1598 17.3517 47.1598 17.2827C47.1598 17.1331 46.1706 16.1324 46.0211 16.1324C45.9636 16.1324 45.8601 16.0634 45.8141 15.9714C45.699 15.7759 44.2497 15.2007 43.6746 15.1202L43.226 15.0627L43.5136 15.5688Z" fill="#088395"/>
<path d="M41.9032 17.0528C41.9493 17.2138 41.9838 18.1225 41.9838 19.0887V20.8371L42.8464 21.3547C43.3295 21.6423 43.7666 21.8838 43.8241 21.8838C43.8702 21.8838 43.9392 21.9298 43.9622 21.9873C44.0197 22.1369 45.2619 22.689 45.2965 22.574C45.331 22.4704 44.9284 21.5617 44.4913 20.7911C43.9047 19.7559 43.5481 19.1807 43.4791 19.1232C43.4446 19.0887 43.134 18.6171 42.8004 18.065C42.1218 16.9493 41.7767 16.5582 41.9032 17.0528Z" fill="#FBFFBD"/>
<path d="M27.6403 15.0627L27.2607 15.1087L27.2722 22.8959C27.2722 32.0518 27.4102 39.0682 27.5827 39.4823C27.6518 39.6434 27.7898 40.0459 27.8933 40.391C28.1004 41.0812 28.7675 42.5075 28.894 42.565C28.9515 42.588 28.986 42.657 28.986 42.726C28.986 42.9906 31.229 45.4636 31.4706 45.4636C31.5051 45.4636 31.7351 45.6131 31.9652 45.7971C32.8739 46.5103 34.7372 47.3385 35.761 47.488C36.0485 47.534 36.3476 47.6145 36.4281 47.672C36.6006 47.8101 39.7063 47.7181 40.4079 47.557C41.0406 47.4075 41.7652 47.1659 42.2713 46.9474C42.7544 46.7288 43.7551 46.1192 43.8011 46.0157C43.8241 45.9697 43.9047 45.9237 43.9852 45.9237C44.1347 45.9237 45.4345 44.7044 46.0671 43.9683C46.5272 43.4277 47.3899 42.1164 47.3899 41.9438C47.3899 41.8633 47.4359 41.7828 47.4819 41.7598C47.7235 41.6678 48.2986 39.5743 48.4826 38.1596C48.6437 36.8943 48.6667 36.0201 48.5976 32.4084C48.5516 30.0619 48.4826 27.7384 48.4481 27.2438L48.3676 26.3236L47.3899 25.829C46.8493 25.5529 46.3432 25.3344 46.2742 25.3344C46.1936 25.3344 46.1246 25.2884 46.1246 25.2309C46.1246 25.1733 45.9751 25.0928 45.7796 25.0468C45.5955 25.0008 45.4345 24.9203 45.4345 24.8628C45.4345 24.8053 45.354 24.7593 45.2619 24.7593C45.1124 24.7593 44.5948 24.4947 42.6279 23.448C42.3173 23.2869 42.0413 23.1489 42.0183 23.1489C41.9953 23.1489 41.9838 26.4501 41.9838 30.4759C41.9838 34.5133 41.9378 38.01 41.8802 38.2401C41.5582 39.6204 40.1204 41.0927 39.1082 41.0927C38.9471 41.0927 38.7516 41.1502 38.6826 41.2192C38.533 41.3687 37.5323 41.2997 36.8077 41.0812C36.0255 40.8396 35.2894 40.3105 34.7602 39.5974C33.9091 38.4356 33.9321 38.6887 33.9321 28.5665C33.9321 19.5027 33.9091 19.0656 33.518 18.1224C33.426 17.9268 33.357 17.7083 33.357 17.6393C33.357 17.5702 33.3109 17.5127 33.2534 17.5127C33.1959 17.5127 33.1154 17.4092 33.0694 17.2827C32.9889 17.0181 32.0342 16.0174 31.8616 16.0174C31.8041 16.0174 31.7466 15.9714 31.7466 15.9254C31.7466 15.7759 30.8379 15.3618 30.0788 15.1547C29.4461 14.9937 28.5029 14.9592 27.6403 15.0627Z" fill="#088395"/>
<path d="M16.6325 33.0295C16.598 33.087 16.3679 33.1675 16.1379 33.2135C15.8963 33.2595 15.6548 33.3285 15.5857 33.3861C15.5282 33.4321 15.2637 33.5126 15.0106 33.5586C14.7576 33.6046 14.5045 33.6736 14.4355 33.7311C14.378 33.7771 14.1134 33.8461 13.8604 33.8807C13.6073 33.9267 13.1702 34.0072 12.8827 34.0647C12.5951 34.1337 12.135 34.1797 11.836 34.1912C11.5484 34.1912 11.2723 34.2372 11.2033 34.2947C11.1458 34.3638 10.8698 34.4213 10.5937 34.4443C10.1106 34.4788 10.0876 34.4903 10.2716 34.6743C10.3752 34.7778 10.4672 34.9044 10.4672 34.9389C10.4672 34.9849 10.6282 35.2149 10.8122 35.4565C11.0078 35.698 11.1573 35.9511 11.1573 36.0201C11.1573 36.0891 11.1918 36.1466 11.2493 36.1466C11.2953 36.1466 11.4564 36.3537 11.6174 36.6067C11.7669 36.8598 11.9395 37.0668 11.9855 37.0668C12.0315 37.0668 12.0775 37.1243 12.0775 37.1818C12.0775 37.2509 12.8022 38.2861 13.6878 39.4823C14.5735 40.6786 15.2982 41.7138 15.2982 41.7713C15.2982 41.8288 15.3442 41.8978 15.4017 41.9208C15.4937 41.9438 16.4369 43.1976 17.0235 44.0833C17.1156 44.2213 17.2536 44.4054 17.3226 44.4744C17.3916 44.5434 17.5412 44.7504 17.6562 44.9345C18.1048 45.6131 19.14 46.7288 19.324 46.7288C19.393 46.7288 19.439 46.7749 19.439 46.8324C19.439 46.8899 19.5541 46.9819 19.7036 47.0279C19.8416 47.0739 19.9797 47.1429 20.0142 47.1774C20.1062 47.304 21.1644 47.6835 21.7395 47.7986C22.5332 47.9711 25.2018 48.0286 25.3398 47.8906C25.4088 47.8216 25.5583 47.7641 25.6618 47.7641C25.7769 47.7641 26.0069 47.58 26.191 47.35C26.628 46.7633 26.6165 45.8432 26.168 45.107C25.6849 44.3363 24.7992 43.1631 24.7071 43.1631C24.6496 43.1631 24.6151 43.0826 24.6151 42.9906C24.6151 42.8985 24.5691 42.818 24.5116 42.818C24.4541 42.818 24.3736 42.726 24.3391 42.611C24.3046 42.5075 24.155 42.2889 24.0055 42.1279C23.8675 41.9668 23.5684 41.5758 23.3499 41.2652C23.1428 40.9431 22.9358 40.6671 22.9013 40.6326C22.8668 40.5981 22.6482 40.3105 22.4297 39.9999C22.2111 39.6779 21.9926 39.3673 21.9351 39.3098C21.8891 39.2408 21.59 38.8267 21.2794 38.3896C20.9689 37.941 20.6698 37.5269 20.6238 37.4694C20.5663 37.4004 20.3477 37.0898 20.1292 36.7793C19.9106 36.4572 19.7036 36.1811 19.6691 36.1466C19.439 35.9396 18.8639 35.1114 18.8639 35.0079C18.8639 34.9389 18.8179 34.8814 18.7719 34.8814C18.6569 34.8814 17.9437 33.8807 17.9437 33.7311C17.9437 33.6621 17.8977 33.6161 17.8402 33.6161C17.7712 33.6161 17.6332 33.4551 17.5181 33.271C17.3801 33.018 17.2306 32.926 17.0005 32.926C16.828 32.926 16.667 32.972 16.6325 33.0295Z" fill="#088395"/>
<path d="M0.11499 39.9081C0.11499 44.0145 0.149497 47.4767 0.184005 47.6147C0.253019 47.8678 0.322033 47.8793 1.21922 47.8793C1.73683 47.8793 2.20843 47.8218 2.24293 47.7642C2.27744 47.6952 2.43848 47.6492 2.59951 47.6492C2.93308 47.6492 4.14083 47.0741 4.71595 46.637C5.26807 46.2229 6.03873 45.3948 6.22277 45.0267C6.30328 44.8541 6.42981 44.6356 6.49882 44.5436C6.57934 44.4516 6.71737 44.095 6.82089 43.7499C6.99343 43.2208 7.01643 42.5192 7.01643 38.6773V34.2259L6.01572 34.0994C4.87699 33.9614 3.85327 33.7658 3.5082 33.6278C3.38167 33.5818 2.96759 33.4438 2.58801 33.3287C2.20843 33.2137 1.51828 32.9722 1.05819 32.7881C0.598091 32.6156 0.195507 32.4661 0.172502 32.4661C0.137995 32.4661 0.11499 35.8132 0.11499 39.9081Z" fill="#088395"/>
<path d="M0 28.9347V30.2575L0.9547 30.7176C1.47231 30.9821 2.26597 31.2927 2.70307 31.4307C3.15166 31.5687 3.60025 31.7298 3.70377 31.7873C3.8188 31.8448 4.00284 31.8908 4.11786 31.8908C4.23288 31.8908 4.62397 31.9713 4.99204 32.0633C5.37162 32.1669 5.69369 32.2129 5.7282 32.1784C5.78571 32.1209 5.42913 31.3617 5.23359 31.1316C5.17608 31.0626 5.03805 30.8901 4.94603 30.7406C4.68148 30.361 4.10636 29.7859 3.48523 29.2913C3.18617 29.0382 2.91011 28.8197 2.8756 28.7852C2.79508 28.7046 2.35799 28.4631 1.80588 28.1985C1.54132 28.072 1.23076 27.911 1.12724 27.8535C1.02371 27.796 0.724652 27.7154 0.460096 27.6809L0 27.6004V28.9347Z" fill="#FBFFBD"/>
<path d="M4.2559 7.70127C3.7843 7.79329 3.23219 7.94282 3.02514 8.03484C2.8296 8.12686 2.61106 8.19588 2.54204 8.19588C2.47303 8.19588 2.41551 8.24189 2.41551 8.2994C2.41551 8.35691 2.31199 8.44893 2.18547 8.48344C1.74837 8.62147 0.805177 9.69119 0.425598 10.4734L0.057521 11.244L0.0230138 18.2605C-0.0114934 25.7255 -0.0114934 25.7946 0.52912 25.7946C0.885694 25.7946 1.74837 26.0936 2.56505 26.4962C3.69228 27.0483 4.83102 27.8765 5.80872 28.8427C6.88995 29.9124 7.07399 30.1425 7.97118 31.3732C8.63832 32.2819 8.64982 32.2934 9.23644 32.3624C10.0646 32.4429 13.3888 32.2589 13.4348 32.1209C13.4578 32.0519 13.5844 32.0059 13.7109 32.0059C13.9524 32.0059 14.8726 31.7298 15.4937 31.4652C15.6893 31.3847 15.9308 31.3157 16.0344 31.3157C16.1379 31.3157 16.2184 31.2697 16.2184 31.2122C16.2184 31.1547 16.3794 31.0742 16.5635 31.0281C16.759 30.9821 16.9085 30.9016 16.9085 30.8441C16.9085 30.7866 16.9661 30.7406 17.0351 30.7406C17.1961 30.7406 18.7029 29.7284 19.094 29.3603C19.2665 29.1993 19.5311 28.9692 19.6806 28.8312C20.1982 28.3826 21.0839 27.3474 21.567 26.5997C22.2917 25.4955 23.1198 23.7816 23.1198 23.4021C23.1198 23.287 23.1774 23.1375 23.2349 23.08C23.3039 23.011 23.3844 22.6199 23.4304 22.1943C23.4649 21.7687 23.5454 21.4236 23.5914 21.4236C23.741 21.4236 23.718 18.5595 23.5684 17.8349C23.3844 16.8917 23.1083 15.8795 22.9473 15.4999C22.4757 14.4187 21.9236 13.3605 21.682 13.0729C21.6245 13.0039 21.4635 12.7968 21.337 12.6128C20.0257 10.7839 17.7942 9.07006 15.8158 8.36841C15.5053 8.26489 15.1372 8.12686 15.0106 8.08085C14.7001 7.94282 13.5844 7.73578 12.5376 7.62076C11.0768 7.44822 5.24511 7.51723 4.2559 7.70127ZM12.3536 14.2921C14.0099 14.5337 15.3902 15.5689 16.2874 17.2368C16.7245 18.0304 16.828 18.5595 16.828 19.8133C16.828 21.6882 16.3794 22.8499 15.1717 24.0577C14.7461 24.4833 14.3435 24.8168 14.148 24.9089C14.0559 24.9549 13.8029 25.0929 13.5844 25.2309C13.3773 25.3575 12.9862 25.5415 12.7217 25.6335C12.1235 25.8521 8.82235 26.0591 7.82164 25.9326L7.07399 25.8521L7.03948 20.1584C7.02798 17.0297 7.03948 14.3957 7.07399 14.3152C7.143 14.1426 11.1458 14.1196 12.3536 14.2921Z" fill="#088395"/>
</svg>
