<svg width="19" height="20" viewBox="0 0 19 20" fill="none" xmlns="http://www.w3.org/2000/svg">
<path d="M15.4368 8.23074C15.4368 9.91081 14.8914 11.4628 13.9727 12.7219L18.6066 17.3595C19.0642 17.8171 19.0642 18.5601 18.6066 19.0176C18.1491 19.4752 17.4061 19.4752 16.9485 19.0176L12.3146 14.38C11.0554 15.3024 9.50347 15.8442 7.82339 15.8442C3.6177 15.8442 0.209961 12.4364 0.209961 8.23074C0.209961 4.02505 3.6177 0.61731 7.82339 0.61731C12.0291 0.61731 15.4368 4.02505 15.4368 8.23074ZM7.82339 13.5016C8.51556 13.5016 9.20096 13.3652 9.84045 13.1004C10.4799 12.8355 11.061 12.4472 11.5504 11.9578C12.0399 11.4683 12.4281 10.8873 12.693 10.2478C12.9579 9.60831 13.0942 8.92291 13.0942 8.23074C13.0942 7.53856 12.9579 6.85316 12.693 6.21368C12.4281 5.57419 12.0399 4.99314 11.5504 4.50369C11.061 4.01425 10.4799 3.626 9.84045 3.36112C9.20096 3.09624 8.51556 2.9599 7.82339 2.9599C7.13121 2.9599 6.44581 3.09624 5.80633 3.36112C5.16684 3.626 4.58579 4.01425 4.09634 4.50369C3.6069 4.99314 3.21866 5.57419 2.95377 6.21368C2.68889 6.85316 2.55255 7.53856 2.55255 8.23074C2.55255 8.92291 2.68889 9.60831 2.95377 10.2478C3.21866 10.8873 3.6069 11.4683 4.09634 11.9578C4.58579 12.4472 5.16684 12.8355 5.80633 13.1004C6.44581 13.3652 7.13121 13.5016 7.82339 13.5016Z" fill="white"/>
</svg>
