<svg width="16" height="17" viewBox="0 0 16 17" fill="none" xmlns="http://www.w3.org/2000/svg">
<path d="M-3.49691e-07 8.5C-1.56571e-07 12.9181 3.58192 16.5 8 16.5C12.4181 16.5 16 12.9181 16 8.5C16 4.08192 12.4181 0.499999 8 0.5C3.58192 0.5 -5.42811e-07 4.08192 -3.49691e-07 8.5ZM11.2573 7.14192C11.3139 7.08237 11.3818 7.03475 11.4571 7.00187C11.5323 6.96898 11.6134 6.9515 11.6956 6.95045C11.7777 6.9494 11.8592 6.9648 11.9353 6.99574C12.0114 7.02669 12.0805 7.07256 12.1386 7.13064C12.1967 7.18872 12.2425 7.25784 12.2735 7.33393C12.3044 7.41002 12.3198 7.49153 12.3188 7.57366C12.3177 7.65579 12.3002 7.73688 12.2674 7.81215C12.2345 7.88742 12.1869 7.95535 12.1273 8.01192L8.435 11.7042C8.3196 11.8196 8.16314 11.8843 8 11.8843C7.83686 11.8843 7.6804 11.8196 7.565 11.7042L3.87269 8.01192C3.76216 7.89558 3.70144 7.74065 3.7035 7.58018C3.70555 7.41972 3.77021 7.2664 3.88369 7.15292C3.99717 7.03944 4.15049 6.97478 4.31095 6.97273C4.47142 6.97067 4.62635 7.03139 4.74269 7.14192L8 10.3988L11.2573 7.14192Z" fill="#088395"/>
</svg>
