<svg width="23" height="24" viewBox="0 0 23 24" fill="none" xmlns="http://www.w3.org/2000/svg">
<path d="M18.8418 24C17.8418 24 16.9918 23.65 16.2918 22.95C15.5918 22.25 15.2418 21.4 15.2418 20.4C15.2418 20.28 15.2718 20 15.3318 19.56L6.9018 14.64C6.5818 14.94 6.2118 15.1752 5.7918 15.3456C5.3718 15.516 4.9218 15.6008 4.4418 15.6C3.4418 15.6 2.5918 15.25 1.8918 14.55C1.1918 13.85 0.841797 13 0.841797 12C0.841797 11 1.1918 10.15 1.8918 9.45C2.5918 8.75 3.4418 8.4 4.4418 8.4C4.9218 8.4 5.3718 8.4852 5.7918 8.6556C6.2118 8.826 6.5818 9.0608 6.9018 9.36L15.3318 4.44C15.2918 4.3 15.267 4.1652 15.2574 4.0356C15.2478 3.906 15.2426 3.7608 15.2418 3.6C15.2418 2.6 15.5918 1.75 16.2918 1.05C16.9918 0.35 17.8418 0 18.8418 0C19.8418 0 20.6918 0.35 21.3918 1.05C22.0918 1.75 22.4418 2.6 22.4418 3.6C22.4418 4.6 22.0918 5.45 21.3918 6.15C20.6918 6.85 19.8418 7.2 18.8418 7.2C18.3618 7.2 17.9118 7.1148 17.4918 6.9444C17.0718 6.774 16.7018 6.5392 16.3818 6.24L7.9518 11.16C7.9918 11.3 8.017 11.4352 8.0274 11.5656C8.0378 11.696 8.0426 11.8408 8.0418 12C8.041 12.1592 8.0362 12.3044 8.0274 12.4356C8.0186 12.5668 7.9934 12.7016 7.9518 12.84L16.3818 17.76C16.7018 17.46 17.0718 17.2252 17.4918 17.0556C17.9118 16.886 18.3618 16.8008 18.8418 16.8C19.8418 16.8 20.6918 17.15 21.3918 17.85C22.0918 18.55 22.4418 19.4 22.4418 20.4C22.4418 21.4 22.0918 22.25 21.3918 22.95C20.6918 23.65 19.8418 24 18.8418 24Z" fill="#FBFFBD"/>
</svg>
