<svg width="68" height="48" viewBox="0 0 68 48" fill="none" xmlns="http://www.w3.org/2000/svg">
<path d="M30.6057 18.167C30.5438 18.5792 30.4819 19.1975 30.4819 19.5622C30.4819 20.5134 29.5121 24.2551 29.182 24.6832C28.9757 24.921 28.4186 28.0602 28.4186 28.8846C28.4186 30.2323 29.1407 32.0872 30.1517 33.3715C30.5025 33.7995 30.8533 34.18 30.9358 34.2117C31.0183 34.2435 31.1008 34.3544 31.1008 34.4496C31.1008 34.624 32.5039 35.8289 33.2467 36.2887C33.453 36.3997 33.9894 36.5265 34.464 36.5582C34.9386 36.5899 35.1862 36.5741 35.0211 36.5265C34.4227 36.3045 33.3292 35.3691 33.4117 35.1155C33.453 34.9252 33.8657 35.1472 34.9592 35.9082C36.2384 36.8119 36.5273 36.9387 37.2288 36.9387C38.508 36.9387 38.6525 36.7802 38.343 35.7972C38.1985 35.3374 37.9716 34.6715 37.8272 34.3227C37.6827 33.9739 37.3939 33.2605 37.1875 32.7373C36.9812 32.2141 36.7542 31.6433 36.6511 31.4689C36.5686 31.2945 36.3416 30.7237 36.1559 30.2005C35.9702 29.6773 35.6813 28.9956 35.5369 28.6944C35.1243 27.8382 34.6084 26.4589 34.6084 26.2211C34.6084 26.0942 34.5259 25.8723 34.4227 25.7137C34.3196 25.571 34.072 25.1271 33.8863 24.7307C33.68 24.3344 33.3911 23.7953 33.2467 23.5099C32.9372 22.9709 32.8546 21.5598 33.1435 21.5598C33.3498 21.5598 34.6084 23.4941 35.3306 24.9686C35.6401 25.571 36.0115 26.3003 36.1765 26.5857C36.3416 26.8552 36.4654 27.1882 36.4654 27.315C36.4654 27.4577 36.5686 27.6163 36.6717 27.6638C36.7955 27.7114 36.878 27.8699 36.878 28.0126C36.878 28.1395 37.0018 28.4724 37.1669 28.7419C37.4351 29.2176 37.724 29.9469 38.962 33.1336C39.5809 34.7667 39.8904 35.1947 40.4475 35.1947C41.0046 35.1947 41.995 34.1166 42.779 32.658C43.2949 31.7067 43.3361 31.4531 43.3361 29.4078C43.3361 27.6321 43.2742 27.0931 43.006 26.7126C42.8203 26.443 42.6552 26.1576 42.6552 26.0467C42.6552 25.6186 41.4998 24.1917 40.6332 23.5734C40.138 23.2087 39.5603 22.7806 39.3746 22.6379C39.1889 22.4952 38.0335 21.9879 36.8161 21.4964C35.5988 21.0049 34.0926 20.3232 33.4943 19.9744C32.4832 19.3878 31.3072 18.2938 31.3072 17.9291C31.3072 17.8499 31.1834 17.7072 31.0183 17.6121C30.7914 17.4694 30.7295 17.5803 30.6057 18.167ZM36.713 22.7806C36.9193 22.9233 37.0844 23.1611 37.0844 23.3197C37.0844 23.4782 37.1875 23.6526 37.2907 23.7002C37.4145 23.7478 37.497 23.6843 37.497 23.5416C37.497 23.1136 38.1573 23.3355 38.6731 23.9222C39.0445 24.3502 39.1477 24.6832 39.1477 25.4759C39.1477 26.4589 38.7763 27.7431 38.4874 27.7431C38.116 27.7431 37.0844 25.6186 37.0844 24.8417C37.0844 24.6039 36.8161 24.0014 36.4654 23.5099C36.1353 23.0184 35.8464 22.6062 35.8464 22.5745C35.8464 22.416 36.3622 22.5428 36.713 22.7806ZM31.9674 23.4941C32.4214 24.16 33.0403 25.6662 32.9165 25.7613C32.7721 25.8723 32.0912 25.3808 31.5548 24.7783C31.1008 24.2868 30.9771 23.716 31.2246 23.2404C31.4103 22.8599 31.596 22.9233 31.9674 23.4941ZM41.2935 25.7296C41.4998 26.0942 41.7887 26.5699 41.9125 26.776C42.0363 26.9821 42.1394 27.8699 42.1394 28.7578C42.1394 30.0896 42.0569 30.4859 41.6855 31.1043C41.0871 32.0555 40.5507 32.3092 39.8492 31.9445C39.2302 31.6433 39.2302 31.5323 39.8698 30.7555C40.1587 30.4067 40.3856 29.9944 40.3856 29.82C40.3856 29.6456 40.4888 29.4554 40.592 29.4078C40.7158 29.3444 40.984 29.0273 41.2109 28.6785C41.5617 28.1553 41.5823 28.0602 41.3141 28.0602C41.149 28.0602 41.0046 28.1395 41.0046 28.2346C41.0046 28.3297 40.9015 28.3773 40.757 28.3456C40.592 28.298 40.4888 27.7114 40.4269 26.5857C40.365 25.2222 40.4063 24.9051 40.6332 24.9686C40.7777 25.0161 41.0665 25.3491 41.2935 25.7296ZM31.3072 26.4747C31.6992 26.9028 32.0912 27.2675 32.1944 27.2675C32.2769 27.2675 32.3388 27.3467 32.3388 27.4577C32.3388 27.5528 32.4832 27.759 32.6483 27.9016C32.834 28.0602 33.0197 28.3456 33.061 28.5358C33.1229 28.7419 33.3705 29.0907 33.6387 29.3127C34.3196 29.8676 34.8973 30.5811 34.7529 30.692C34.4846 30.8981 31.7198 29.4871 31.7198 29.1383C31.7198 28.9639 31.1834 28.5358 30.9771 28.5358C30.8945 28.5358 30.6469 28.4248 30.4406 28.2663C30.1517 28.0602 30.0692 27.7748 30.0692 26.8394C30.0692 25.4283 30.2962 25.3649 31.3072 26.4747ZM31.0596 30.3591C31.596 30.6603 32.2769 31.0567 32.5864 31.2469C33.7212 31.9128 36.878 34.402 36.878 34.6398C36.878 34.9411 36.6717 34.9411 36.1559 34.6557C35.9289 34.5447 34.9798 34.1483 34.0307 33.7678C32.05 32.9909 31.3278 32.5312 30.6263 31.5482C30.1105 30.8189 29.7184 29.8042 29.966 29.8042C30.0279 29.8042 30.5231 30.0579 31.0596 30.3591ZM36.878 35.9399C36.878 36.0509 36.8161 36.146 36.7336 36.146C36.4654 36.146 35.4544 35.1313 35.5782 34.9886C35.7226 34.8142 36.878 35.6545 36.878 35.9399Z" fill="#EEEEEE"/>
<path d="M62.0508 0.110813C62.1734 0.178471 62.434 0.246124 62.618 0.246124C63.4305 0.246124 66.1901 1.91043 66.1901 2.38401C66.1901 2.4652 66.2361 2.54639 66.2974 2.57345C66.5427 2.65463 66.972 3.58827 67.0946 4.26482C67.2939 5.38789 67.1253 44.4382 66.926 45.1689C66.4507 46.8061 65.1476 47.821 63.3079 47.9833C61.3762 48.1322 59.7358 47.2797 58.8159 45.6154L58.448 44.9659V39.1882C58.448 36.0084 58.402 33.3834 58.356 33.3293C58.2947 33.2887 58.0187 33.5052 57.7428 33.83C57.4668 34.1547 57.1909 34.4388 57.1449 34.4794C57.0989 34.52 56.6236 35.0342 56.0717 35.6296C55.5351 36.2249 55.0446 36.7391 54.9986 36.7797C54.9526 36.8203 54.5693 37.2397 54.1554 37.7269C53.7414 38.214 53.3582 38.6334 53.3122 38.674C53.2662 38.7146 52.8829 39.1341 52.469 39.6212C52.055 40.1083 51.6718 40.5278 51.6258 40.5684C51.5798 40.609 51.1965 41.0284 50.7826 41.5155C50.3533 42.0026 49.9854 42.4221 49.9394 42.4627C49.8934 42.5033 49.5101 42.9228 49.0962 43.3963C48.6669 43.8834 48.161 44.4382 47.9464 44.6277C47.7317 44.8306 47.3485 45.2095 47.1032 45.4666C46.5359 46.0484 45.0182 46.9414 44.1903 47.1985C42.5039 47.6992 39.7137 47.8886 38.5332 47.5774C37.0001 47.1715 36.4482 45.5748 37.4447 44.4247C37.6594 44.1676 37.828 43.9105 37.828 43.8429C37.828 43.7617 37.874 43.6805 37.9506 43.6534C38.012 43.6264 38.3033 43.3422 38.5945 43.0039C38.8858 42.6792 39.2384 42.3003 39.3611 42.1785C39.729 41.8403 40.1583 41.3667 40.9708 40.4331C41.3848 39.9459 41.768 39.5265 41.814 39.4859C41.86 39.4453 42.2433 39.0258 42.6572 38.5387C43.0712 38.0516 43.4544 37.6321 43.5004 37.5916C43.5464 37.551 43.761 37.3074 43.9603 37.0503C44.1596 36.7932 44.3743 36.5497 44.4203 36.5091C44.4663 36.4685 44.8342 36.049 45.2635 35.5619C45.6774 35.0748 46.0607 34.6553 46.1067 34.6147C46.1527 34.5742 46.5206 34.1547 46.9499 33.6676C47.3638 33.1805 47.7624 32.761 47.8237 32.7475C47.9004 32.7204 47.9464 32.6392 47.9464 32.5716C47.9464 32.4904 48.1457 32.2468 48.4063 32.0033C48.6516 31.7597 48.8662 31.5162 48.8662 31.4485C48.8662 31.3808 49.0195 31.2049 49.2035 31.0426C49.4028 30.8802 49.8627 30.3931 50.2307 29.9466C50.6139 29.5 50.9972 29.0671 51.0892 28.9994C51.1812 28.9182 51.5951 28.4717 52.009 27.9846C52.423 27.4975 52.8369 27.0645 52.9136 27.0103C53.0515 26.9292 52.8369 26.6044 52.3923 26.2256C52.3463 26.185 52.1317 25.9414 51.9171 25.6843C51.6871 25.4272 51.3805 25.0754 51.2272 24.9131C51.0585 24.7642 50.8286 24.4936 50.7059 24.3312C50.5833 24.1688 50.338 23.8982 50.1693 23.7359C49.8474 23.4111 49.6788 23.2217 47.931 21.2868C47.3331 20.6102 46.7352 19.9472 46.5819 19.7984C46.4439 19.6495 45.984 19.1353 45.5701 18.6482C45.1408 18.1611 44.7575 17.7416 44.7116 17.7011C44.6502 17.6605 44.3436 17.3222 44.037 16.9569C43.715 16.578 43.3931 16.2532 43.3164 16.2397C43.2551 16.2127 43.1938 16.1044 43.1938 15.9962C43.1938 15.8879 43.1325 15.8067 43.0712 15.8067C43.0098 15.8067 42.6879 15.4955 42.3659 15.1302C42.044 14.7513 41.5381 14.2236 41.2621 13.9394C40.6489 13.3306 39.729 12.3428 39.2078 11.7474C38.9931 11.5039 38.6405 11.1115 38.3952 10.8679C38.1653 10.6244 37.9813 10.3537 37.9813 10.2726C37.9813 10.1914 37.92 10.1237 37.828 10.1237C37.7513 10.1237 37.644 9.97488 37.5827 9.78545C37.5367 9.59601 37.4294 9.44717 37.3527 9.44717C37.1228 9.44717 37.1841 7.87758 37.4294 7.70168C37.8587 7.39046 43.6691 7.74227 43.9603 8.09407C44.0063 8.1482 44.2056 8.22939 44.4203 8.26998C45.3401 8.44588 47.1032 9.23067 47.6091 9.6772C47.7164 9.77192 47.8544 9.8531 47.9157 9.8531C48.0997 9.8531 49.3568 10.9626 50.1693 11.8151C50.5833 12.2616 50.9665 12.654 51.0125 12.6946C51.0585 12.7352 51.3651 13.0599 51.7024 13.4388C52.0397 13.8041 52.3617 14.1289 52.423 14.1559C52.4996 14.183 52.5456 14.2913 52.5456 14.386C52.5456 14.4807 52.6069 14.5889 52.6836 14.616C52.7449 14.6295 53.2508 15.1437 53.7874 15.7391C54.324 16.3344 54.7993 16.8486 54.8452 16.8892C54.8912 16.9298 55.1979 17.2545 55.5351 17.6334C55.8724 17.9987 56.3017 18.4453 56.4857 18.6076C56.685 18.77 56.8383 18.9459 56.8383 18.9865C56.8383 19.0271 57.0376 19.2571 57.2982 19.5007C57.5435 19.7442 57.7581 19.9878 57.7581 20.0419C57.7581 20.2043 58.172 20.5426 58.356 20.5426C58.4787 20.5426 58.54 17.4304 58.5553 10.2861L58.6013 0.0431595L60.211 0.00256729C61.1002 -0.0109673 61.9281 0.0296288 62.0508 0.110813Z" fill="#EEEEEE"/>
<path d="M20.3814 30.006C20.3408 30.0736 20.0702 30.1684 19.7996 30.2225C19.5154 30.2766 19.2313 30.3578 19.1501 30.4254C19.0824 30.4796 18.7712 30.5743 18.4736 30.6284C18.1759 30.6825 17.8782 30.7637 17.797 30.8314C17.7294 30.8855 17.4182 30.9667 17.1205 31.0073C16.8228 31.0614 16.3086 31.1561 15.9704 31.2237C15.6321 31.3049 15.0909 31.359 14.7391 31.3726C14.4008 31.3726 14.0761 31.4267 13.9949 31.4944C13.9273 31.5755 13.6025 31.6432 13.2778 31.6703C12.7095 31.7108 12.6824 31.7244 12.8989 31.9409C13.0207 32.0626 13.1289 32.2115 13.1289 32.2521C13.1289 32.3062 13.3184 32.5768 13.5349 32.861C13.7649 33.1451 13.9408 33.4428 13.9408 33.524C13.9408 33.6051 13.9814 33.6728 14.049 33.6728C14.1032 33.6728 14.2926 33.9163 14.482 34.214C14.6579 34.5117 14.8609 34.7552 14.915 34.7552C14.9691 34.7552 15.0232 34.8229 15.0232 34.8906C15.0232 34.9717 15.8757 36.1895 16.9175 37.5967C17.9594 39.0039 18.8118 40.2216 18.8118 40.2893C18.8118 40.3569 18.8659 40.4381 18.9336 40.4652C19.0418 40.4922 20.1514 41.9671 20.8414 43.0089C20.9497 43.1713 21.112 43.3878 21.1932 43.469C21.2744 43.5502 21.4503 43.7937 21.5856 44.0102C22.1133 44.8085 23.3311 46.121 23.5476 46.121C23.6287 46.121 23.6829 46.1751 23.6829 46.2428C23.6829 46.3104 23.8182 46.4187 23.9941 46.4728C24.1564 46.5269 24.3188 46.6081 24.3594 46.6487C24.4676 46.7975 25.7125 47.244 26.389 47.3793C27.3226 47.5823 30.4617 47.65 30.6241 47.4876C30.7053 47.4064 30.8812 47.3388 31.0029 47.3388C31.1383 47.3388 31.4089 47.1223 31.6254 46.8516C32.1395 46.1616 32.126 45.0791 31.5983 44.2132C31.03 43.3066 29.9881 41.9265 29.8799 41.9265C29.8122 41.9265 29.7717 41.8318 29.7717 41.7235C29.7717 41.6153 29.7175 41.5206 29.6499 41.5206C29.5822 41.5206 29.4875 41.4123 29.4469 41.277C29.4063 41.1552 29.2304 40.8982 29.0545 40.7087C28.8922 40.5193 28.5404 40.0593 28.2833 39.6939C28.0397 39.3151 27.7962 38.9903 27.7556 38.9497C27.715 38.9092 27.4579 38.5709 27.2008 38.2056C26.9437 37.8267 26.6867 37.4614 26.619 37.3937C26.5649 37.3125 26.2131 36.8254 25.8478 36.3113C25.4824 35.7836 25.1306 35.2965 25.0765 35.2288C25.0089 35.1476 24.7518 34.7823 24.4947 34.417C24.2376 34.0381 23.9941 33.7134 23.9535 33.6728C23.6829 33.4292 23.0063 32.455 23.0063 32.3333C23.0063 32.2521 22.9522 32.1844 22.8981 32.1844C22.7628 32.1844 21.9239 31.0073 21.9239 30.8314C21.9239 30.7502 21.8698 30.696 21.8021 30.696C21.7209 30.696 21.5585 30.5066 21.4232 30.2901C21.2609 29.9925 21.085 29.8842 20.8144 29.8842C20.6114 29.8842 20.422 29.9383 20.3814 30.006Z" fill="#EEEEEE"/>
<path d="M0.951294 38.0973C0.951294 42.9278 0.991886 47.0005 1.03248 47.1629C1.11366 47.4605 1.19485 47.4741 2.25024 47.4741C2.85912 47.4741 3.41387 47.4064 3.45447 47.3388C3.49506 47.2576 3.68449 47.2034 3.87392 47.2034C4.2663 47.2034 5.68702 46.5269 6.36356 46.0127C7.01303 45.5256 7.91958 44.5514 8.13607 44.1185C8.23079 43.9155 8.37962 43.6584 8.46081 43.5502C8.55552 43.4419 8.71789 43.0225 8.83967 42.6166C9.04263 41.9941 9.06969 41.1688 9.06969 36.6495V31.4132L7.89252 31.2643C6.55299 31.102 5.34876 30.8719 4.94284 30.7096C4.794 30.6555 4.3069 30.4931 3.86039 30.3578C3.41387 30.2225 2.60203 29.9383 2.06081 29.7218C1.51958 29.5189 1.04601 29.343 1.01895 29.343C0.978355 29.343 0.951294 33.2804 0.951294 38.0973Z" fill="#EEEEEE"/>
<path d="M0.81604 25.1891V26.7451L1.93908 27.2863C2.54796 27.5976 3.48158 27.9629 3.99574 28.1252C4.52344 28.2876 5.05114 28.477 5.17291 28.5447C5.30822 28.6124 5.52471 28.6665 5.66001 28.6665C5.79532 28.6665 6.25536 28.7612 6.68834 28.8694C7.13486 28.9912 7.51371 29.0453 7.55431 29.0047C7.62196 28.9371 7.20251 28.0441 6.97249 27.7734C6.90484 27.6923 6.74247 27.4893 6.63422 27.3134C6.32302 26.8669 5.64648 26.1904 4.91583 25.6085C4.56403 25.3109 4.2393 25.0538 4.1987 25.0132C4.10399 24.9185 3.58982 24.6343 2.94035 24.3231C2.62915 24.1743 2.26382 23.9849 2.14204 23.9172C2.02027 23.8496 1.66847 23.7548 1.35727 23.7143L0.81604 23.6195V25.1891Z" fill="#EEEEEE"/>
<path d="M5.82237 0.211481C5.26762 0.319725 4.61815 0.495625 4.37459 0.60387C4.14457 0.712114 3.88749 0.793299 3.80631 0.793299C3.72512 0.793299 3.65747 0.847422 3.65747 0.915075C3.65747 0.982729 3.53569 1.09097 3.38686 1.13157C2.87269 1.29393 1.76318 2.55228 1.31666 3.47237L0.883684 4.37892L0.843092 12.6326C0.8025 21.414 0.8025 21.4952 1.43844 21.4952C1.85789 21.4952 2.87269 21.847 3.83337 22.3206C5.15937 22.97 6.49891 23.9442 7.64901 25.0808C8.92089 26.3392 9.13738 26.6098 10.1928 28.0576C10.9776 29.1265 10.9911 29.14 11.6811 29.2212C12.6554 29.3159 16.5657 29.0994 16.6198 28.9371C16.6469 28.8559 16.7957 28.8018 16.9446 28.8018C17.2287 28.8018 18.3112 28.477 19.0418 28.1658C19.2718 28.0711 19.556 27.9899 19.6778 27.9899C19.7995 27.9899 19.8943 27.9358 19.8943 27.8681C19.8943 27.8005 20.0837 27.7058 20.3002 27.6516C20.5302 27.5975 20.7061 27.5028 20.7061 27.4352C20.7061 27.3675 20.7738 27.3134 20.8549 27.3134C21.0444 27.3134 22.8169 26.1227 23.2769 25.6897C23.4799 25.5003 23.7911 25.2297 23.967 25.0673C24.5759 24.5396 25.6177 23.3218 26.186 22.4423C27.0384 21.1434 28.0127 19.1273 28.0127 18.6808C28.0127 18.5455 28.0803 18.3696 28.148 18.302C28.2291 18.2208 28.3239 17.7607 28.378 17.2601C28.4186 16.7595 28.5133 16.3536 28.5674 16.3536C28.7433 16.3536 28.7162 12.9844 28.5403 12.132C28.3239 11.0225 27.9991 9.83178 27.8097 9.38526C27.2549 8.11338 26.6055 6.86856 26.3213 6.53029C26.2537 6.44911 26.0642 6.20556 25.9154 5.98907C24.3729 3.83769 21.748 1.82163 19.4207 0.996258C19.0554 0.874483 18.6224 0.712114 18.4735 0.657991C18.1082 0.495625 16.7957 0.252073 15.5644 0.116766C13.8461 -0.0861931 6.98601 -0.0050106 5.82237 0.211481ZM15.348 7.96454C17.2964 8.24869 18.92 9.46645 19.9754 11.4284C20.4896 12.362 20.6114 12.9844 20.6114 14.4593C20.6114 16.6648 20.0837 18.0314 18.663 19.4521C18.1623 19.9527 17.6888 20.3451 17.4587 20.4533C17.3505 20.5075 17.0528 20.6698 16.7957 20.8322C16.5522 20.981 16.0921 21.1975 15.7809 21.3058C15.0773 21.5629 11.194 21.8064 10.0169 21.6576L9.13738 21.5629L9.09679 14.8652C9.08326 11.1848 9.09679 8.08632 9.13738 7.99161C9.21857 7.78865 13.9272 7.76159 15.348 7.96454Z" fill="#EEEEEE"/>
</svg>
