<svg width="28" height="25" viewBox="0 0 28 25" fill="none" xmlns="http://www.w3.org/2000/svg">
<g filter="url(#filter0_d_124_1840)">
<path fill-rule="evenodd" clip-rule="evenodd" d="M5.17235 0.377028C9.71026 -0.125676 14.2898 -0.125676 18.8277 0.377028C21.3068 0.653791 23.3055 2.60549 23.5967 5.09375C24.1344 9.69515 24.1344 14.3435 23.5967 18.9449C23.3055 21.4332 21.3068 23.3849 18.829 23.663C14.2907 24.1658 9.71069 24.1658 5.17235 23.663C2.69323 23.3849 0.694536 21.4332 0.403412 18.9463C-0.134471 14.3444 -0.134471 9.69559 0.403412 5.09375C0.694536 2.60549 2.69323 0.653791 5.17235 0.377028ZM18.5275 4.18643C18.1812 4.18643 17.8492 4.32398 17.6043 4.5688C17.3595 4.81363 17.222 5.14568 17.222 5.49192C17.222 5.83816 17.3595 6.17021 17.6043 6.41504C17.8492 6.65986 18.1812 6.79741 18.5275 6.79741C18.8737 6.79741 19.2058 6.65986 19.4506 6.41504C19.6954 6.17021 19.833 5.83816 19.833 5.49192C19.833 5.14568 19.6954 4.81363 19.4506 4.5688C19.2058 4.32398 18.8737 4.18643 18.5275 4.18643ZM5.79898 12.0193C5.79898 10.3747 6.45231 8.79746 7.61523 7.63454C8.77815 6.47162 10.3554 5.81829 12 5.81829C13.6447 5.81829 15.2219 6.47162 16.3848 7.63454C17.5478 8.79746 18.2011 10.3747 18.2011 12.0193C18.2011 13.664 17.5478 15.2412 16.3848 16.4042C15.2219 17.5671 13.6447 18.2204 12 18.2204C10.3554 18.2204 8.77815 17.5671 7.61523 16.4042C6.45231 15.2412 5.79898 13.664 5.79898 12.0193Z" fill="#FBFFBD"/>
</g>
<defs>
<filter id="filter0_d_124_1840" x="-4" y="0" width="32" height="32.04" filterUnits="userSpaceOnUse" color-interpolation-filters="sRGB">
<feFlood flood-opacity="0" result="BackgroundImageFix"/>
<feColorMatrix in="SourceAlpha" type="matrix" values="0 0 0 0 0 0 0 0 0 0 0 0 0 0 0 0 0 0 127 0" result="hardAlpha"/>
<feOffset dy="4"/>
<feGaussianBlur stdDeviation="2"/>
<feComposite in2="hardAlpha" operator="out"/>
<feColorMatrix type="matrix" values="0 0 0 0 0 0 0 0 0 0 0 0 0 0 0 0 0 0 0.25 0"/>
<feBlend mode="normal" in2="BackgroundImageFix" result="effect1_dropShadow_124_1840"/>
<feBlend mode="normal" in="SourceGraphic" in2="effect1_dropShadow_124_1840" result="shape"/>
</filter>
</defs>
</svg>
