<svg width="28" height="25" viewBox="0 0 28 25" fill="none" xmlns="http://www.w3.org/2000/svg">
<g filter="url(#filter0_d_124_1842)">
<path d="M7.42857 0C5.5375 0 4 1.5375 4 3.42857V20.5714C4 22.4625 5.5375 24 7.42857 24H24.5714C26.4625 24 28 22.4625 28 20.5714V3.42857C28 1.5375 26.4625 0 24.5714 0H7.42857ZM23.3446 4.5L17.7839 10.8536L24.325 19.5H19.2036L15.1964 14.2554L10.6054 19.5H8.06071L14.0071 12.7018L7.73393 4.5H12.9839L16.6107 9.29464L20.8 4.5H23.3446ZM21.3196 17.9786L12.2179 5.94107H10.7018L19.9054 17.9786H21.3143H21.3196Z" fill="#FBFFBD"/>
</g>
<defs>
<filter id="filter0_d_124_1842" x="0" y="0" width="32" height="32" filterUnits="userSpaceOnUse" color-interpolation-filters="sRGB">
<feFlood flood-opacity="0" result="BackgroundImageFix"/>
<feColorMatrix in="SourceAlpha" type="matrix" values="0 0 0 0 0 0 0 0 0 0 0 0 0 0 0 0 0 0 127 0" result="hardAlpha"/>
<feOffset dy="4"/>
<feGaussianBlur stdDeviation="2"/>
<feComposite in2="hardAlpha" operator="out"/>
<feColorMatrix type="matrix" values="0 0 0 0 0 0 0 0 0 0 0 0 0 0 0 0 0 0 0.25 0"/>
<feBlend mode="normal" in2="BackgroundImageFix" result="effect1_dropShadow_124_1842"/>
<feBlend mode="normal" in="SourceGraphic" in2="effect1_dropShadow_124_1842" result="shape"/>
</filter>
</defs>
</svg>
