<svg width="800" height="800" viewBox="0 0 800 800" fill="none" xmlns="http://www.w3.org/2000/svg">
<rect width="800" height="800" fill="#0C1123"/>
<path d="M366.552 342.02C365.942 346.082 365.332 352.175 365.332 355.768C365.332 365.142 355.776 402.013 352.523 406.232C350.49 408.575 345 439.509 345 447.634C345 460.913 352.116 479.193 362.079 491.848C365.535 496.066 368.992 499.815 369.805 500.128C370.618 500.44 371.432 501.534 371.432 502.471C371.432 504.19 385.257 516.064 392.577 520.594C394.61 521.688 399.896 522.938 404.573 523.25C409.249 523.563 411.689 523.407 410.062 522.938C404.166 520.751 393.39 511.533 394.203 509.033C394.61 507.158 398.676 509.346 409.452 516.845C422.058 525.75 424.905 527 431.817 527C444.423 527 445.846 525.438 442.797 515.751C441.373 511.22 439.137 504.659 437.714 501.222C436.29 497.784 433.444 490.754 431.411 485.598C429.378 480.443 427.141 474.818 426.124 473.1C425.311 471.381 423.075 465.757 421.245 460.601C419.415 455.445 416.568 448.727 415.145 445.759C411.079 437.322 405.996 423.73 405.996 421.386C405.996 420.137 405.183 417.949 404.166 416.387C403.149 414.981 400.71 410.606 398.88 406.7C396.846 402.795 394 397.483 392.577 394.671C389.527 389.359 388.714 375.454 391.56 375.454C393.593 375.454 405.996 394.514 413.112 409.044C416.162 414.981 419.822 422.168 421.448 424.98C423.075 427.636 424.295 430.917 424.295 432.166C424.295 433.573 425.311 435.135 426.328 435.604C427.548 436.072 428.361 437.635 428.361 439.041C428.361 440.291 429.581 443.571 431.207 446.227C433.851 450.914 436.697 458.101 448.896 489.504C454.996 505.596 458.046 509.814 463.535 509.814C469.025 509.814 478.784 499.19 486.51 484.817C491.593 475.443 492 472.943 492 452.789C492 435.291 491.39 429.979 488.747 426.23C486.917 423.574 485.29 420.761 485.29 419.668C485.29 415.45 473.905 401.389 465.365 395.295C460.485 391.702 454.793 387.484 452.963 386.078C451.133 384.672 439.747 379.672 427.751 374.829C415.755 369.986 400.913 363.268 395.017 359.831C385.054 354.05 373.465 343.27 373.465 339.676C373.465 338.895 372.245 337.489 370.618 336.552C368.382 335.146 367.772 336.239 366.552 342.02ZM426.734 387.484C428.768 388.89 430.394 391.233 430.394 392.796C430.394 394.358 431.411 396.077 432.427 396.545C433.647 397.014 434.461 396.389 434.461 394.983C434.461 390.765 440.967 392.952 446.05 398.733C449.71 402.951 450.726 406.232 450.726 414.043C450.726 423.73 447.066 436.385 444.22 436.385C440.56 436.385 430.394 415.45 430.394 407.794C430.394 405.451 427.751 399.514 424.295 394.671C421.041 389.827 418.195 385.765 418.195 385.453C418.195 383.89 423.278 385.14 426.734 387.484ZM379.971 394.514C384.444 401.076 390.544 415.918 389.324 416.856C387.9 417.949 381.191 413.106 375.905 407.169C371.432 402.326 370.212 396.702 372.651 392.015C374.481 388.265 376.311 388.89 379.971 394.514ZM471.871 416.543C473.905 420.137 476.751 424.824 477.971 426.855C479.191 428.886 480.207 437.635 480.207 446.384C480.207 459.507 479.394 463.413 475.734 469.506C469.838 478.88 464.552 481.38 457.639 477.787C451.539 474.818 451.539 473.724 457.842 466.069C460.689 462.632 462.925 458.57 462.925 456.851C462.925 455.133 463.942 453.258 464.959 452.789C466.178 452.164 468.822 449.04 471.058 445.603C474.515 440.447 474.718 439.509 472.075 439.509C470.448 439.509 469.025 440.291 469.025 441.228C469.025 442.165 468.008 442.634 466.585 442.322C464.959 441.853 463.942 436.072 463.332 424.98C462.722 411.544 463.129 408.419 465.365 409.044C466.788 409.513 469.635 412.794 471.871 416.543ZM373.465 423.886C377.328 428.104 381.191 431.698 382.207 431.698C383.021 431.698 383.631 432.479 383.631 433.573C383.631 434.51 385.054 436.541 386.68 437.947C388.51 439.509 390.34 442.322 390.747 444.196C391.357 446.227 393.797 449.665 396.44 451.852C403.149 457.32 408.842 464.351 407.419 465.444C404.776 467.475 377.531 453.57 377.531 450.133C377.531 448.415 372.245 444.196 370.212 444.196C369.398 444.196 366.959 443.103 364.925 441.54C362.079 439.509 361.266 436.697 361.266 427.479C361.266 413.575 363.502 412.95 373.465 423.886ZM371.025 462.163C376.311 465.132 383.021 469.038 386.071 470.912C397.253 477.474 428.361 502.003 428.361 504.346C428.361 507.315 426.328 507.315 421.245 504.502C419.008 503.409 409.656 499.503 400.303 495.753C380.784 488.098 373.668 483.567 366.755 473.881C361.672 466.694 357.809 456.695 360.249 456.695C360.859 456.695 365.739 459.195 371.025 462.163ZM428.361 517.157C428.361 518.251 427.751 519.188 426.938 519.188C424.295 519.188 414.332 509.189 415.552 507.783C416.975 506.065 428.361 514.345 428.361 517.157Z" fill="#088395"/>
<path d="M676.417 164.092C677.625 164.759 680.193 165.425 682.006 165.425C690.013 165.425 717.206 181.826 717.206 186.492C717.206 187.292 717.659 188.092 718.264 188.359C720.681 189.159 724.911 198.359 726.119 205.026C728.083 216.093 726.422 600.902 724.458 608.102C719.774 624.235 706.933 634.236 688.804 635.836C669.769 637.302 653.605 628.902 644.54 612.502L640.914 606.102V549.167C640.914 517.833 640.461 491.966 640.008 491.433C639.404 491.033 636.684 493.166 633.965 496.366C631.246 499.566 628.526 502.366 628.073 502.766C627.62 503.166 622.937 508.233 617.498 514.1C612.211 519.966 607.376 525.033 606.923 525.433C606.47 525.833 602.693 529.967 598.614 534.767C594.535 539.567 590.758 543.7 590.305 544.1C589.852 544.5 586.075 548.634 581.996 553.434C577.917 558.234 574.14 562.367 573.687 562.767C573.234 563.167 569.457 567.301 565.378 572.101C561.148 576.901 557.522 581.034 557.069 581.435C556.616 581.835 552.839 585.968 548.76 590.635C544.53 595.435 539.545 600.902 537.43 602.768C535.315 604.768 531.538 608.502 529.121 611.035C523.531 616.769 508.575 625.569 500.417 628.102C483.799 633.036 456.303 634.902 444.671 631.836C429.564 627.836 424.125 612.102 433.945 600.768C436.06 598.235 437.722 595.701 437.722 595.035C437.722 594.235 438.175 593.435 438.93 593.168C439.534 592.901 442.405 590.101 445.275 586.768C448.146 583.568 451.62 579.834 452.829 578.634C456.455 575.301 460.685 570.634 468.691 561.434C472.77 556.634 476.547 552.501 477 552.101C477.454 551.701 481.23 547.567 485.309 542.767C489.388 537.967 493.165 533.833 493.618 533.433C494.072 533.033 496.187 530.633 498.151 528.1C500.115 525.567 502.23 523.167 502.683 522.767C503.136 522.367 506.762 518.233 510.992 513.433C515.071 508.633 518.848 504.499 519.301 504.099C519.754 503.699 523.38 499.566 527.61 494.766C531.689 489.966 535.617 485.832 536.221 485.699C536.976 485.432 537.43 484.632 537.43 483.966C537.43 483.166 539.394 480.766 541.962 478.366C544.379 475.966 546.494 473.565 546.494 472.899C546.494 472.232 548.005 470.499 549.818 468.899C551.781 467.299 556.314 462.499 559.939 458.098C563.716 453.698 567.493 449.432 568.399 448.765C569.306 447.965 573.385 443.565 577.464 438.765C581.543 433.965 585.622 429.698 586.377 429.164C587.737 428.364 585.622 425.164 581.241 421.431C580.787 421.031 578.672 418.631 576.557 416.098C574.291 413.564 571.27 410.097 569.759 408.497C568.097 407.031 565.831 404.364 564.623 402.764C563.414 401.164 560.997 398.497 559.335 396.897C556.163 393.697 554.501 391.83 537.278 372.763C531.387 366.096 525.495 359.563 523.984 358.096C522.624 356.63 518.092 351.563 514.013 346.763C509.783 341.963 506.006 337.829 505.553 337.429C504.949 337.029 501.927 333.696 498.906 330.096C495.733 326.362 492.561 323.162 491.806 323.029C491.201 322.762 490.597 321.695 490.597 320.629C490.597 319.562 489.993 318.762 489.388 318.762C488.784 318.762 485.612 315.695 482.439 312.095C479.267 308.362 474.281 303.162 471.562 300.362C465.519 294.361 456.455 284.628 451.318 278.761C449.203 276.361 445.728 272.494 443.311 270.094C441.045 267.694 439.232 265.028 439.232 264.227C439.232 263.427 438.628 262.761 437.722 262.761C436.966 262.761 435.909 261.294 435.304 259.427C434.851 257.561 433.794 256.094 433.038 256.094C430.772 256.094 431.376 240.627 433.794 238.894C438.024 235.827 495.28 239.294 498.151 242.76C498.604 243.294 500.568 244.094 502.683 244.494C511.747 246.227 529.121 253.961 534.106 258.361C535.163 259.294 536.523 260.094 537.127 260.094C538.94 260.094 551.328 271.028 559.335 279.428C563.414 283.828 567.191 287.695 567.644 288.095C568.097 288.495 571.119 291.695 574.442 295.428C577.766 299.028 580.939 302.228 581.543 302.495C582.298 302.762 582.751 303.828 582.751 304.762C582.751 305.695 583.356 306.762 584.111 307.028C584.715 307.162 589.701 312.229 594.988 318.095C600.276 323.962 604.959 329.029 605.412 329.429C605.866 329.829 608.887 333.029 612.211 336.762C615.534 340.362 619.764 344.763 621.577 346.363C623.541 347.963 625.052 349.696 625.052 350.096C625.052 350.496 627.016 352.763 629.584 355.163C632.001 357.563 634.116 359.963 634.116 360.496C634.116 362.096 638.195 365.43 640.008 365.43C641.217 365.43 641.821 334.762 641.972 264.361L642.425 163.425L658.288 163.025C667.05 162.892 675.208 163.292 676.417 164.092Z" fill="#FBFFBD"/>
<path d="M265.8 458.683C265.4 459.35 262.733 460.283 260.066 460.816C257.266 461.35 254.466 462.15 253.666 462.816C253 463.35 249.933 464.283 247 464.816C244.066 465.35 241.133 466.15 240.333 466.816C239.666 467.35 236.6 468.15 233.666 468.55C230.733 469.083 225.666 470.016 222.333 470.683C219 471.483 213.666 472.016 210.2 472.15C206.866 472.15 203.666 472.683 202.866 473.35C202.2 474.15 199 474.816 195.8 475.083C190.2 475.483 189.933 475.616 192.066 477.75C193.266 478.95 194.333 480.416 194.333 480.816C194.333 481.35 196.2 484.016 198.333 486.816C200.6 489.616 202.333 492.55 202.333 493.35C202.333 494.15 202.733 494.816 203.4 494.816C203.933 494.816 205.8 497.216 207.666 500.15C209.4 503.083 211.4 505.483 211.933 505.483C212.466 505.483 213 506.15 213 506.816C213 507.616 221.4 519.616 231.666 533.483C241.933 547.35 250.333 559.35 250.333 560.016C250.333 560.683 250.866 561.483 251.533 561.75C252.6 562.016 263.533 576.55 270.333 586.816C271.4 588.416 273 590.55 273.8 591.35C274.6 592.15 276.333 594.55 277.666 596.683C282.866 604.55 294.866 617.483 297 617.483C297.8 617.483 298.333 618.016 298.333 618.683C298.333 619.35 299.666 620.416 301.4 620.95C303 621.483 304.6 622.283 305 622.683C306.066 624.15 318.333 628.55 325 629.883C334.2 631.883 365.133 632.55 366.733 630.95C367.533 630.15 369.266 629.483 370.466 629.483C371.8 629.483 374.466 627.35 376.6 624.683C381.666 617.883 381.533 607.216 376.333 598.683C370.733 589.75 360.466 576.15 359.4 576.15C358.733 576.15 358.333 575.216 358.333 574.15C358.333 573.083 357.8 572.15 357.133 572.15C356.466 572.15 355.533 571.083 355.133 569.75C354.733 568.55 353 566.016 351.266 564.15C349.666 562.283 346.2 557.75 343.666 554.15C341.266 550.416 338.866 547.216 338.466 546.816C338.066 546.416 335.533 543.083 333 539.483C330.466 535.75 327.933 532.15 327.266 531.483C326.733 530.683 323.266 525.883 319.666 520.816C316.066 515.616 312.6 510.816 312.066 510.15C311.4 509.35 308.866 505.75 306.333 502.15C303.8 498.416 301.4 495.216 301 494.816C298.333 492.416 291.666 482.816 291.666 481.616C291.666 480.816 291.133 480.15 290.6 480.15C289.266 480.15 281 468.55 281 466.816C281 466.016 280.466 465.483 279.8 465.483C279 465.483 277.4 463.616 276.066 461.483C274.466 458.55 272.733 457.483 270.066 457.483C268.066 457.483 266.2 458.016 265.8 458.683Z" fill="#088395"/>
<path d="M74.333 538.417C74.333 586.017 74.733 626.15 75.133 627.75C75.933 630.683 76.733 630.817 87.133 630.817C93.133 630.817 98.5997 630.15 98.9997 629.483C99.3997 628.683 101.266 628.15 103.133 628.15C107 628.15 121 621.483 127.666 616.417C134.066 611.617 143 602.017 145.133 597.75C146.066 595.75 147.533 593.217 148.333 592.15C149.266 591.083 150.866 586.95 152.066 582.95C154.066 576.817 154.333 568.683 154.333 524.15V472.55L142.733 471.083C129.533 469.483 117.666 467.217 113.666 465.617C112.2 465.083 107.4 463.483 103 462.15C98.5997 460.817 90.5997 458.017 85.2663 455.883C79.933 453.883 75.2663 452.15 74.9997 452.15C74.5997 452.15 74.333 490.95 74.333 538.417Z" fill="#088395"/>
<path d="M73 411.217V426.55L84.0667 431.883C90.0667 434.95 99.2667 438.55 104.333 440.15C109.533 441.75 114.733 443.617 115.933 444.283C117.267 444.95 119.4 445.483 120.733 445.483C122.067 445.483 126.6 446.417 130.867 447.483C135.267 448.683 139 449.217 139.4 448.817C140.067 448.15 135.933 439.35 133.667 436.683C133 435.883 131.4 433.883 130.333 432.15C127.267 427.75 120.6 421.083 113.4 415.35C109.933 412.417 106.733 409.883 106.333 409.483C105.4 408.55 100.333 405.75 93.9333 402.683C90.8667 401.217 87.2667 399.35 86.0667 398.683C84.8667 398.017 81.4 397.083 78.3333 396.683L73 395.75V411.217Z" fill="#FBFFBD"/>
<path d="M122.333 165.083C116.866 166.15 110.466 167.883 108.066 168.95C105.8 170.017 103.266 170.817 102.466 170.817C101.666 170.817 101 171.35 101 172.017C101 172.683 99.7995 173.75 98.3328 174.15C93.2662 175.75 82.3328 188.15 77.9328 197.217L73.6662 206.15L73.2662 287.483C72.8662 374.017 72.8662 374.817 79.1328 374.817C83.2662 374.817 93.2662 378.283 102.733 382.95C115.8 389.35 129 398.95 140.333 410.15C152.866 422.55 155 425.217 165.4 439.483C173.133 450.017 173.266 450.15 180.066 450.95C189.666 451.883 228.2 449.75 228.733 448.15C229 447.35 230.466 446.817 231.933 446.817C234.733 446.817 245.4 443.617 252.6 440.55C254.866 439.617 257.666 438.817 258.866 438.817C260.066 438.817 261 438.283 261 437.617C261 436.95 262.866 436.017 265 435.483C267.266 434.95 269 434.017 269 433.35C269 432.683 269.666 432.15 270.466 432.15C272.333 432.15 289.8 420.417 294.333 416.15C296.333 414.283 299.4 411.617 301.133 410.017C307.133 404.817 317.4 392.817 323 384.15C331.4 371.35 341 351.483 341 347.083C341 345.75 341.666 344.017 342.333 343.35C343.133 342.55 344.066 338.017 344.6 333.083C345 328.15 345.933 324.15 346.466 324.15C348.2 324.15 347.933 290.95 346.2 282.55C344.066 271.617 340.866 259.883 339 255.483C333.533 242.95 327.133 230.683 324.333 227.35C323.666 226.55 321.8 224.15 320.333 222.017C305.133 200.817 279.266 180.95 256.333 172.817C252.733 171.617 248.466 170.017 247 169.483C243.4 167.883 230.466 165.483 218.333 164.15C201.4 162.15 133.8 162.95 122.333 165.083ZM216.2 241.483C235.4 244.283 251.4 256.283 261.8 275.617C266.866 284.817 268.066 290.95 268.066 305.483C268.066 327.217 262.866 340.683 248.866 354.683C243.933 359.617 239.266 363.483 237 364.55C235.933 365.083 233 366.683 230.466 368.283C228.066 369.75 223.533 371.883 220.466 372.95C213.533 375.483 175.266 377.883 163.666 376.417L155 375.483L154.6 309.483C154.466 273.217 154.6 242.683 155 241.75C155.8 239.75 202.2 239.483 216.2 241.483Z" fill="#088395"/>
</svg>
